<?xml version="1.0" encoding="UTF-8"?>
<!DOCTYPE svg PUBLIC "-//W3C//DTD SVG 1.1//EN" "http://www.w3.org/Graphics/SVG/1.1/DTD/svg11.dtd">
<svg xmlns="http://www.w3.org/2000/svg" version="1.1" width="640px" height="640px" style="shape-rendering:geometricPrecision; text-rendering:geometricPrecision; image-rendering:optimizeQuality; fill-rule:evenodd; clip-rule:evenodd" xmlns:xlink="http://www.w3.org/1999/xlink">
<g><path style="opacity:1" fill="#f9f9f9" d="M -0.5,-0.5 C 212.833,-0.5 426.167,-0.5 639.5,-0.5C 639.5,212.833 639.5,426.167 639.5,639.5C 426.167,639.5 212.833,639.5 -0.5,639.5C -0.5,426.167 -0.5,212.833 -0.5,-0.5 Z"/></g>
<g><path style="opacity:1" fill="#cfdeed" d="M 191.5,130.5 C 197.653,129.347 203.986,129.18 210.5,130C 209.833,130.333 209.167,130.667 208.5,131C 210.207,131.195 211.874,131.195 213.5,131C 212.748,131.671 212.414,132.504 212.5,133.5C 205.759,130.928 198.759,129.928 191.5,130.5 Z"/></g>
<g><path style="opacity:1" fill="#2c4a75" d="M 303.5,131.5 C 301.23,134.092 298.563,136.425 295.5,138.5C 293.468,139.819 291.468,139.819 289.5,138.5C 293.317,134.591 297.984,132.258 303.5,131.5 Z"/></g>
<g><path style="opacity:1" fill="#2b4a79" d="M 191.5,130.5 C 198.759,129.928 205.759,130.928 212.5,133.5C 214.23,134.026 215.564,135.026 216.5,136.5C 212.25,135.275 207.917,134.109 203.5,133C 187.638,130.603 175.305,135.936 166.5,149C 165.552,149.483 164.552,149.649 163.5,149.5C 169.594,138.408 178.928,132.074 191.5,130.5 Z"/></g>
<g><path style="opacity:1" fill="#2d4a72" d="M 289.5,138.5 C 287.562,143.738 284.228,147.738 279.5,150.5C 281.071,144.938 284.404,140.938 289.5,138.5 Z"/></g>
<g><path style="opacity:1" fill="#284b7b" d="M 163.5,150.5 C 161.716,158.71 161.216,167.043 162,175.5C 163.381,180.481 164.881,185.481 166.5,190.5C 159.654,182.101 157.154,172.434 159,161.5C 159.259,157.201 160.759,153.534 163.5,150.5 Z"/></g>
<g><path style="opacity:1" fill="#1e4a8c" d="M 216.5,136.5 C 217.492,136.328 218.158,136.662 218.5,137.5C 221.722,142.579 225.222,147.579 229,152.5C 232.736,161.799 233.57,171.466 231.5,181.5C 229.345,187.143 226.678,192.477 223.5,197.5C 225.08,200.659 226.08,203.993 226.5,207.5C 227.822,207.33 228.989,207.663 230,208.5C 230.511,210.878 231.178,213.212 232,215.5C 234.756,217.091 236.589,219.424 237.5,222.5C 245.633,222.545 253.633,222.878 261.5,223.5C 260.991,224.341 261.657,224.841 263.5,225C 257.917,225.191 252.417,225.691 247,226.5C 246.439,225.978 245.772,225.645 245,225.5C 238.313,226.735 234.147,230.569 232.5,237C 233.093,238.882 234.427,239.882 236.5,240C 233.248,242.878 230.915,246.378 229.5,250.5C 230.35,257.542 230.517,264.542 230,271.5C 229.692,270.692 229.192,270.025 228.5,269.5C 227.41,270.391 227.41,271.391 228.5,272.5C 227.234,273.724 226.067,275.057 225,276.5C 224.3,274.968 223.134,273.968 221.5,273.5C 220.708,271.535 220.041,269.535 219.5,267.5C 219.043,266.702 218.376,266.369 217.5,266.5C 202.167,266.5 186.833,266.5 171.5,266.5C 167.192,271.106 163.359,276.106 160,281.5C 159.004,287.673 157.504,293.673 155.5,299.5C 151.011,299.263 149.011,296.93 149.5,292.5C 148.167,292.5 146.833,292.5 145.5,292.5C 129.398,297.324 115.565,292.99 104,279.5C 104.337,275.817 102.837,273.484 99.5,272.5C 99.155,268.578 98.4884,264.745 97.5,261C 98.1079,260.13 98.9412,259.63 100,259.5C 101.465,260.33 102.965,260.496 104.5,260C 103.62,258.644 103.286,257.144 103.5,255.5C 102.5,255.5 101.5,255.5 100.5,255.5C 100.844,251.772 101.51,248.105 102.5,244.5C 101.754,243.264 101.421,241.93 101.5,240.5C 102.675,240.719 103.675,240.386 104.5,239.5C 105.031,235.401 107.364,233.401 111.5,233.5C 111.5,231.833 111.5,230.167 111.5,228.5C 115.214,228.429 118.547,227.262 121.5,225C 124.5,224.667 127.5,224.333 130.5,224C 130.043,223.586 129.709,223.086 129.5,222.5C 133.107,221.511 136.774,221.177 140.5,221.5C 143.698,223.143 146.364,225.476 148.5,228.5C 153.789,230.246 158.456,232.913 162.5,236.5C 164.52,241.135 166.353,245.801 168,250.5C 169.011,251.337 170.178,251.67 171.5,251.5C 172.016,253.2 173.016,254.533 174.5,255.5C 188.698,254.199 202.698,252.865 216.5,251.5C 217.167,251.5 217.5,251.167 217.5,250.5C 218.458,250.047 219.292,249.381 220,248.5C 221.721,244.057 223.721,239.724 226,235.5C 227.556,234.48 228.722,233.147 229.5,231.5C 227.897,228.72 226.063,226.054 224,223.5C 223.75,220.246 222.75,217.246 221,214.5C 219.644,213.62 218.144,213.286 216.5,213.5C 216.804,212.85 217.137,212.183 217.5,211.5C 215.495,208.97 214.161,206.137 213.5,203C 210.498,202.222 207.664,201.055 205,199.5C 203.893,199.585 202.893,199.919 202,200.5C 200.396,197.223 198.063,196.557 195,198.5C 192.239,197.582 189.406,196.916 186.5,196.5C 186.286,198.144 186.62,199.644 187.5,201C 192.823,201.499 198.156,201.666 203.5,201.5C 203.5,202.5 203.5,203.5 203.5,204.5C 198.833,204.5 194.167,204.5 189.5,204.5C 188.167,204.5 186.833,204.5 185.5,204.5C 185.196,203.85 184.863,203.183 184.5,202.5C 181.68,201.618 179.014,200.452 176.5,199C 178.061,198.059 179.395,196.892 180.5,195.5C 175.348,195.006 170.681,193.34 166.5,190.5C 164.881,185.481 163.381,180.481 162,175.5C 161.216,167.043 161.716,158.71 163.5,150.5C 163.5,150.167 163.5,149.833 163.5,149.5C 164.552,149.649 165.552,149.483 166.5,149C 175.305,135.936 187.638,130.603 203.5,133C 207.917,134.109 212.25,135.275 216.5,136.5 Z"/></g>
<g><path style="opacity:1" fill="#f4f7f7" d="M 216.5,157.5 C 221.011,169.214 218.678,179.214 209.5,187.5C 195.016,194.258 183.682,190.925 175.5,177.5C 171.219,156.282 179.886,145.782 201.5,146C 208.006,147.914 213.006,151.748 216.5,157.5 Z"/></g>
<g><path style="opacity:1" fill="#2d4976" d="M 218.5,137.5 C 233.346,149.039 237.679,163.705 231.5,181.5C 233.57,171.466 232.736,161.799 229,152.5C 225.222,147.579 221.722,142.579 218.5,137.5 Z"/></g>
<g><path style="opacity:1" fill="#2c4a77" d="M 279.5,150.5 C 277.122,158.651 276.289,166.984 277,175.5C 277.714,178.595 278.714,181.595 280,184.5C 283.262,187.017 285.429,189.85 286.5,193C 285.944,193.383 285.611,193.883 285.5,194.5C 274.309,182.696 271.476,169.029 277,153.5C 277.377,152.058 278.21,151.058 279.5,150.5 Z"/></g>
<g><path style="opacity:1" fill="#304d78" d="M 216.5,157.5 C 219.353,158.189 221.019,160.022 221.5,163C 220.703,166.745 220.203,170.579 220,174.5C 218.601,177.363 217.601,180.363 217,183.5C 214.365,184.473 212.365,186.14 211,188.5C 210.617,187.944 210.117,187.611 209.5,187.5C 218.678,179.214 221.011,169.214 216.5,157.5 Z"/></g>
<g><path style="opacity:1" fill="#2d4a72" d="M 175.5,177.5 C 183.682,190.925 195.016,194.258 209.5,187.5C 208.878,189.335 207.544,190.502 205.5,191C 194.521,193.649 185.021,191.149 177,183.5C 175.872,181.655 175.372,179.655 175.5,177.5 Z"/></g>
<g><path style="opacity:1" fill="#1e4a8b" d="M 303.5,131.5 C 314.124,131.054 323.29,133.721 331,139.5C 334.302,141.305 337.469,143.305 340.5,145.5C 341.246,146.736 341.579,148.07 341.5,149.5C 342.675,149.281 343.675,149.614 344.5,150.5C 352.546,168.43 349.213,183.596 334.5,196C 330.928,197.617 327.928,199.95 325.5,203C 322.949,203.002 320.949,203.836 319.5,205.5C 313.908,207.136 308.574,206.803 303.5,204.5C 301.191,201.78 298.525,201.28 295.5,203C 295.833,203.333 296.167,203.667 296.5,204C 294.46,206.185 293.126,208.685 292.5,211.5C 291.5,211.5 290.5,211.5 289.5,211.5C 288.833,214.833 288.167,218.167 287.5,221.5C 287.068,222.71 286.401,223.71 285.5,224.5C 284.432,223.566 283.099,223.232 281.5,223.5C 279.838,231.363 282.005,238.03 288,243.5C 289.102,247.416 289.769,251.416 290,255.5C 290.889,254.112 291.389,254.278 291.5,256C 290.391,258.047 289.724,260.213 289.5,262.5C 289.5,262.833 289.5,263.167 289.5,263.5C 288.5,263.5 287.5,263.5 286.5,263.5C 285.759,267.292 284.759,270.959 283.5,274.5C 278.944,274.291 278.277,272.624 281.5,269.5C 281.61,267.626 280.944,266.126 279.5,265C 280.227,263.601 280.727,262.101 281,260.5C 282.101,262.394 283.434,263.061 285,262.5C 285.548,258.83 286.048,255.163 286.5,251.5C 285.178,251.33 284.011,251.663 283,252.5C 282.273,255.155 281.106,257.488 279.5,259.5C 278.654,255.455 278.654,251.622 279.5,248C 278.552,247.517 277.552,247.351 276.5,247.5C 275.701,242.368 272.701,239.701 267.5,239.5C 267.167,239.5 266.833,239.5 266.5,239.5C 266.414,238.504 266.748,237.671 267.5,237C 274.177,235.061 274.01,233.561 267,232.5C 265.739,232.759 264.739,233.426 264,234.5C 258.84,234.272 253.507,233.605 248,232.5C 245.687,234.931 242.854,235.931 239.5,235.5C 239.201,233.396 239.534,231.396 240.5,229.5C 245.124,230.86 249.624,230.526 254,228.5C 256.694,229.883 259.527,230.383 262.5,230C 263.212,227.119 264.878,224.952 267.5,223.5C 268.167,224.167 268.833,224.833 269.5,225.5C 272.172,220.358 275.339,215.691 279,211.5C 280.922,206.66 283.088,201.993 285.5,197.5C 285.5,196.5 285.5,195.5 285.5,194.5C 285.611,193.883 285.944,193.383 286.5,193C 285.429,189.85 283.262,187.017 280,184.5C 278.714,181.595 277.714,178.595 277,175.5C 276.289,166.984 277.122,158.651 279.5,150.5C 284.228,147.738 287.562,143.738 289.5,138.5C 291.468,139.819 293.468,139.819 295.5,138.5C 298.563,136.425 301.23,134.092 303.5,131.5 Z"/></g>
<g><path style="opacity:1" fill="#f5f8f7" d="M 294.5,182.5 C 289.422,173.254 289.255,163.92 294,154.5C 296.775,151.22 299.942,148.554 303.5,146.5C 325.93,143.433 336.097,153.099 334,175.5C 328.4,187.884 318.9,192.717 305.5,190C 301.492,187.996 297.825,185.496 294.5,182.5 Z"/></g>
<g><path style="opacity:1" fill="#2b4d7f" d="M 294.5,182.5 C 297.825,185.496 301.492,187.996 305.5,190C 318.9,192.717 328.4,187.884 334,175.5C 336.097,153.099 325.93,143.433 303.5,146.5C 312.549,143.225 321.215,144.225 329.5,149.5C 331.126,147.548 333.126,146.214 335.5,145.5C 336.014,147.512 336.18,149.512 336,151.5C 334.989,150.663 333.822,150.33 332.5,150.5C 332.03,153.346 332.863,155.679 335,157.5C 335.333,157.167 335.667,156.833 336,156.5C 337.723,167.371 336.223,177.705 331.5,187.5C 327.135,188.38 323.135,189.88 319.5,192C 310.99,193.768 303.323,192.101 296.5,187C 295.418,185.67 294.751,184.17 294.5,182.5 Z"/></g>
<g><path style="opacity:1" fill="#2f4d7a" d="M 303.5,131.5 C 326.547,128.113 342.047,137.446 350,159.5C 352.526,176.937 346.693,190.77 332.5,201C 328.525,203.576 324.192,205.076 319.5,205.5C 320.949,203.836 322.949,203.002 325.5,203C 327.928,199.95 330.928,197.617 334.5,196C 349.213,183.596 352.546,168.43 344.5,150.5C 343.675,149.614 342.675,149.281 341.5,149.5C 341.579,148.07 341.246,146.736 340.5,145.5C 337.469,143.305 334.302,141.305 331,139.5C 323.29,133.721 314.124,131.054 303.5,131.5 Z"/></g>
<g><path style="opacity:1" fill="#294c7d" d="M 166.5,190.5 C 170.681,193.34 175.348,195.006 180.5,195.5C 179.395,196.892 178.061,198.059 176.5,199C 179.014,200.452 181.68,201.618 184.5,202.5C 184.863,203.183 185.196,203.85 185.5,204.5C 178.178,202.356 172.011,198.356 167,192.5C 166.536,191.906 166.369,191.239 166.5,190.5 Z"/></g>
<g><path style="opacity:1" fill="#234981" d="M 216.5,213.5 C 214.399,210.821 212.399,207.988 210.5,205C 207.469,204.505 204.469,204.671 201.5,205.5C 197.298,205.817 193.298,205.483 189.5,204.5C 194.167,204.5 198.833,204.5 203.5,204.5C 203.5,203.5 203.5,202.5 203.5,201.5C 198.156,201.666 192.823,201.499 187.5,201C 186.62,199.644 186.286,198.144 186.5,196.5C 189.406,196.916 192.239,197.582 195,198.5C 198.063,196.557 200.396,197.223 202,200.5C 202.893,199.919 203.893,199.585 205,199.5C 207.664,201.055 210.498,202.222 213.5,203C 214.161,206.137 215.495,208.97 217.5,211.5C 217.137,212.183 216.804,212.85 216.5,213.5 Z"/></g>
<g><path style="opacity:1" fill="#627b97" d="M 185.5,204.5 C 186.833,204.5 188.167,204.5 189.5,204.5C 193.298,205.483 197.298,205.817 201.5,205.5C 199.527,206.163 197.361,206.496 195,206.5C 191.523,206.672 188.356,206.006 185.5,204.5 Z"/></g>
<g><path style="opacity:1" fill="#2b4c7c" d="M 303.5,204.5 C 300.956,204.104 298.789,204.771 297,206.5C 293.97,211.674 290.804,216.674 287.5,221.5C 288.167,218.167 288.833,214.833 289.5,211.5C 290.5,211.5 291.5,211.5 292.5,211.5C 293.126,208.685 294.46,206.185 296.5,204C 296.167,203.667 295.833,203.333 295.5,203C 298.525,201.28 301.191,201.78 303.5,204.5 Z"/></g>
<g><path style="opacity:1" fill="#2d4b77" d="M 223.5,197.5 C 229.321,205.797 235.155,214.13 241,222.5C 249.219,219.902 257.386,219.902 265.5,222.5C 264.432,223.434 263.099,223.768 261.5,223.5C 253.633,222.878 245.633,222.545 237.5,222.5C 236.589,219.424 234.756,217.091 232,215.5C 231.178,213.212 230.511,210.878 230,208.5C 228.989,207.663 227.822,207.33 226.5,207.5C 226.08,203.993 225.08,200.659 223.5,197.5 Z"/></g>
<g><path style="opacity:1" fill="#dfecf2" d="M 443.5,240.5 C 439.325,237.165 434.992,233.998 430.5,231C 426.559,228.854 422.559,227.021 418.5,225.5C 406.724,219.267 394.057,216.6 380.5,217.5C 366.715,217.234 353.715,220.234 341.5,226.5C 341.323,224.019 342.323,222.186 344.5,221C 348.084,219.927 351.75,219.26 355.5,219C 357.061,218.682 358.228,217.849 359,216.5C 359.414,216.957 359.914,217.291 360.5,217.5C 362.122,215.561 363.956,215.228 366,216.5C 372.301,215.441 378.634,214.441 385,213.5C 393.137,214.707 401.137,216.374 409,218.5C 409.333,217.833 409.667,217.167 410,216.5C 414.443,219.239 418.943,221.906 423.5,224.5C 425.045,225.452 426.712,225.785 428.5,225.5C 428.5,226.5 428.5,227.5 428.5,228.5C 433.694,231.167 439.027,233.667 444.5,236C 444.833,236.333 445.167,236.667 445.5,237C 444.177,237.816 443.511,238.983 443.5,240.5 Z"/></g>
<g><path style="opacity:1" fill="#1e4a8f" d="M 395.5,220.5 C 392.865,220.939 389.865,221.439 386.5,222C 388.221,222.739 389.887,223.573 391.5,224.5C 388.973,225.214 386.473,225.88 384,226.5C 376.485,225.544 368.818,225.211 361,225.5C 360.544,226.744 361.044,227.577 362.5,228C 365.518,228.499 368.518,228.332 371.5,227.5C 373.973,227.701 376.306,228.368 378.5,229.5C 372.377,231.543 366.044,232.71 359.5,233C 357.102,234.524 354.769,236.024 352.5,237.5C 348.25,239.126 343.917,240.459 339.5,241.5C 339.33,240.178 339.663,239.011 340.5,238C 343.251,237.484 345.584,236.317 347.5,234.5C 345.31,232.9 343.31,231.066 341.5,229C 343.833,228.333 346.167,228.333 348.5,229C 348.167,229.333 347.833,229.667 347.5,230C 350.217,232.076 353.217,232.743 356.5,232C 356.957,231.586 357.291,231.086 357.5,230.5C 355.345,229.59 353.345,228.423 351.5,227C 357.004,224.928 362.338,222.761 367.5,220.5C 372.432,219.112 377.599,218.445 383,218.5C 387.442,218.326 391.609,218.993 395.5,220.5 Z"/></g>
<g><path style="opacity:1" fill="#1e4a8d" d="M 403.5,221.5 C 408.641,223.378 413.641,224.711 418.5,225.5C 424.129,229.989 429.795,234.489 435.5,239C 434.408,241.762 432.574,243.928 430,245.5C 425.513,242.529 420.68,240.196 415.5,238.5C 414.77,237.066 413.77,235.9 412.5,235C 409.993,234.907 407.826,234.074 406,232.5C 399.512,233.34 393.346,232.173 387.5,229C 391.5,228.667 395.5,228.333 399.5,228C 402.97,225.877 402.97,224.71 399.5,224.5C 399.5,223.5 399.5,222.5 399.5,221.5C 400.833,221.5 402.167,221.5 403.5,221.5 Z"/></g>
<g><path style="opacity:1" fill="#305080" d="M 140.5,221.5 C 136.774,221.177 133.107,221.511 129.5,222.5C 129.709,223.086 130.043,223.586 130.5,224C 127.5,224.333 124.5,224.667 121.5,225C 118.547,227.262 115.214,228.429 111.5,228.5C 119.995,221.466 129.662,219.133 140.5,221.5 Z"/></g>
<g><path style="opacity:1" fill="#2a4a77" d="M 418.5,225.5 C 413.641,224.711 408.641,223.378 403.5,221.5C 401.052,220.527 398.385,220.194 395.5,220.5C 391.609,218.993 387.442,218.326 383,218.5C 377.599,218.445 372.432,219.112 367.5,220.5C 358.619,223.107 349.619,225.441 340.5,227.5C 340.5,226.833 340.833,226.5 341.5,226.5C 353.715,220.234 366.715,217.234 380.5,217.5C 394.057,216.6 406.724,219.267 418.5,225.5 Z"/></g>
<g><path style="opacity:1" fill="#3b5888" d="M 140.5,221.5 C 156.49,224.487 166.823,233.82 171.5,249.5C 186.819,250.499 202.152,250.833 217.5,250.5C 217.5,251.167 217.167,251.5 216.5,251.5C 201.5,251.5 186.5,251.5 171.5,251.5C 170.178,251.67 169.011,251.337 168,250.5C 166.353,245.801 164.52,241.135 162.5,236.5C 158.456,232.913 153.789,230.246 148.5,228.5C 146.364,225.476 143.698,223.143 140.5,221.5 Z"/></g>
<g><path style="opacity:1" fill="#2b4c78" d="M 216.5,213.5 C 218.144,213.286 219.644,213.62 221,214.5C 222.75,217.246 223.75,220.246 224,223.5C 226.063,226.054 227.897,228.72 229.5,231.5C 228.722,233.147 227.556,234.48 226,235.5C 223.721,239.724 221.721,244.057 220,248.5C 219.292,249.381 218.458,250.047 217.5,250.5C 218.981,243.205 222.314,236.872 227.5,231.5C 223.806,225.483 220.14,219.483 216.5,213.5 Z"/></g>
<g><path style="opacity:1" fill="#344f78" d="M 143.5,237.5 C 135.866,235.652 128.532,236.318 121.5,239.5C 121.5,238.167 121.5,236.833 121.5,235.5C 127.472,234.526 133.472,234.359 139.5,235C 141.437,235.122 142.77,235.955 143.5,237.5 Z"/></g>
<g><path style="opacity:1" fill="#244a83" d="M 367.5,220.5 C 362.338,222.761 357.004,224.928 351.5,227C 353.345,228.423 355.345,229.59 357.5,230.5C 357.291,231.086 356.957,231.586 356.5,232C 353.217,232.743 350.217,232.076 347.5,230C 347.833,229.667 348.167,229.333 348.5,229C 346.167,228.333 343.833,228.333 341.5,229C 343.31,231.066 345.31,232.9 347.5,234.5C 345.584,236.317 343.251,237.484 340.5,238C 339.663,239.011 339.33,240.178 339.5,241.5C 343.917,240.459 348.25,239.126 352.5,237.5C 325.323,251.348 309.323,273.348 304.5,303.5C 304.24,295.373 305.074,287.373 307,279.5C 309.635,277.539 311.469,275.039 312.5,272C 312.167,271.667 311.833,271.333 311.5,271C 314.03,269.805 316.03,267.972 317.5,265.5C 316.281,263.232 314.615,261.399 312.5,260C 314.274,257.657 315.608,255.157 316.5,252.5C 319.908,252.563 322.241,254.23 323.5,257.5C 325.316,253.405 327.982,249.905 331.5,247C 333.941,246.964 335.941,246.131 337.5,244.5C 336.127,242.51 335.127,240.343 334.5,238C 336.585,236.959 338.252,235.459 339.5,233.5C 339.113,232.28 338.28,231.613 337,231.5C 334.913,233.126 332.747,234.626 330.5,236C 330.833,236.333 331.167,236.667 331.5,237C 327.114,238.93 323.948,242.097 322,246.5C 320.612,245.446 319.112,245.28 317.5,246C 316.042,248.46 314.209,250.627 312,252.5C 311.276,257.389 308.776,261.055 304.5,263.5C 305.688,263.307 307.022,263.807 308.5,265C 309.337,266.011 309.67,267.178 309.5,268.5C 307.738,268.643 306.071,268.309 304.5,267.5C 302.464,268.885 300.464,270.218 298.5,271.5C 300.137,268.183 301.804,264.85 303.5,261.5C 312.645,246.688 324.979,235.354 340.5,227.5C 349.619,225.441 358.619,223.107 367.5,220.5 Z"/></g>
<g><path style="opacity:1" fill="#f5f7f7" d="M 143.5,237.5 C 144.514,238.674 145.847,239.34 147.5,239.5C 155.806,246.758 158.473,255.758 155.5,266.5C 155.5,266.833 155.5,267.167 155.5,267.5C 148.927,278.618 139.26,282.951 126.5,280.5C 123.869,278.847 121.203,277.181 118.5,275.5C 108.619,262.868 109.286,250.868 120.5,239.5C 120.833,239.5 121.167,239.5 121.5,239.5C 128.532,236.318 135.866,235.652 143.5,237.5 Z"/></g>
<g><path style="opacity:1" fill="#f7f9f8" d="M 266.5,239.5 C 266.833,239.5 267.167,239.5 267.5,239.5C 273.167,244.166 276.167,250.166 276.5,257.5C 273.642,261.587 271.642,266.254 270.5,271.5C 267.946,272.899 266.28,274.899 265.5,277.5C 260.405,278.618 255.572,278.618 251,277.5C 247.122,276.411 243.622,275.244 240.5,274C 243.038,271.641 242.371,270.141 238.5,269.5C 236.289,264.483 234.622,259.316 233.5,254C 236.443,249.22 239.11,244.72 241.5,240.5C 245.038,237.061 249.371,235.728 254.5,236.5C 258.975,236.013 262.975,237.013 266.5,239.5 Z"/></g>
<g><path style="opacity:1" fill="#f7f8f8" d="M 420.5,243.5 C 425.46,246.323 430.127,249.657 434.5,253.5C 437.699,251.136 441.032,248.97 444.5,247C 445.823,246.184 446.489,245.017 446.5,243.5C 448.151,246.477 450.151,249.143 452.5,251.5C 452.167,252.833 451.833,254.167 451.5,255.5C 448.19,257.482 445.19,259.815 442.5,262.5C 442.167,262.5 441.833,262.5 441.5,262.5C 432.558,268.11 423.891,274.11 415.5,280.5C 413.066,279.586 410.9,279.586 409,280.5C 407.363,284.637 404.53,287.637 400.5,289.5C 399.614,290.325 399.281,291.325 399.5,292.5C 395.735,292.676 393.735,294.676 393.5,298.5C 392.833,298.833 392.167,299.167 391.5,299.5C 384.606,302.721 378.272,307.554 372.5,314C 373.056,314.383 373.389,314.883 373.5,315.5C 373.167,316.167 372.833,316.833 372.5,317.5C 357.869,329.131 344.535,342.131 332.5,356.5C 328.833,359.833 325.167,363.167 321.5,366.5C 320.127,366.343 318.793,366.51 317.5,367C 317.833,367.333 318.167,367.667 318.5,368C 311.471,376.251 304.471,383.751 297.5,390.5C 296.743,387.8 295.409,385.3 293.5,383C 293.833,382.667 294.167,382.333 294.5,382C 291.553,381.888 290.22,380.388 290.5,377.5C 294.074,378.092 296.074,376.592 296.5,373C 293.741,370.516 294.074,369.35 297.5,369.5C 297.351,368.448 297.517,367.448 298,366.5C 301.062,366.898 304.229,367.898 307.5,369.5C 306.491,371.185 306.991,372.518 309,373.5C 309.5,373.167 310,372.833 310.5,372.5C 308.361,368.018 309.695,365.185 314.5,364C 317.811,361.319 318.145,358.485 315.5,355.5C 311.301,347.447 307.968,339.114 305.5,330.5C 304.608,323.209 304.274,315.876 304.5,308.5C 305.829,304.226 307.329,299.893 309,295.5C 309.691,297.891 310.691,297.891 312,295.5C 312.827,296.662 313.66,297.829 314.5,299C 313.54,305.184 312.54,311.35 311.5,317.5C 313.437,319.04 314.604,321.04 315,323.5C 315.667,322.167 316.333,322.167 317,323.5C 317.456,322.256 316.956,321.423 315.5,321C 316.094,320.536 316.761,320.369 317.5,320.5C 321.684,321.296 324.85,319.963 327,316.5C 326.687,306.225 328.854,296.558 333.5,287.5C 333.5,287.167 333.5,286.833 333.5,286.5C 341.084,272.914 352.084,263.248 366.5,257.5C 372.401,256.043 378.401,255.376 384.5,255.5C 390.052,250.82 389.719,246.653 383.5,243C 381.527,242.505 379.527,242.338 377.5,242.5C 372.633,241.753 367.799,241.753 363,242.5C 360.995,242.999 359.495,244.166 358.5,246C 354.989,246.67 351.656,247.837 348.5,249.5C 347.833,249.167 347.167,248.833 346.5,248.5C 344.102,249.898 342.435,251.898 341.5,254.5C 340.522,254.023 339.689,253.357 339,252.5C 338.261,253.574 337.261,254.241 336,254.5C 334.399,252.397 334.732,250.397 337,248.5C 339.291,249.311 341.125,248.477 342.5,246C 345.516,245.78 348.016,244.613 350,242.5C 350.333,242.833 350.667,243.167 351,243.5C 352.455,241.407 354.288,239.74 356.5,238.5C 361.643,237.875 366.643,236.708 371.5,235C 379.435,234.094 387.268,234.594 395,236.5C 395.873,236.265 396.707,235.931 397.5,235.5C 398.696,235.846 398.696,236.346 397.5,237C 405.462,238.746 413.129,240.912 420.5,243.5 Z"/></g>
<g><path style="opacity:1" fill="#2e4f7b" d="M 285.5,224.5 C 284.194,226.816 282.861,229.15 281.5,231.5C 285.315,235.647 288.315,240.314 290.5,245.5C 291.399,248.6 292.066,251.767 292.5,255C 292.432,257.956 291.432,260.456 289.5,262.5C 289.724,260.213 290.391,258.047 291.5,256C 291.389,254.278 290.889,254.112 290,255.5C 289.769,251.416 289.102,247.416 288,243.5C 282.005,238.03 279.838,231.363 281.5,223.5C 283.099,223.232 284.432,223.566 285.5,224.5 Z"/></g>
<g><path style="opacity:1" fill="#2e4c75" d="M 147.5,239.5 C 149.764,240.581 151.931,241.915 154,243.5C 155.402,247.207 156.902,250.874 158.5,254.5C 157.27,257.476 157.27,260.476 158.5,263.5C 158.429,266.223 157.429,267.223 155.5,266.5C 158.473,255.758 155.806,246.758 147.5,239.5 Z"/></g>
<g><path style="opacity:1" fill="#254b82" d="M 395.5,220.5 C 398.385,220.194 401.052,220.527 403.5,221.5C 402.167,221.5 400.833,221.5 399.5,221.5C 399.5,222.5 399.5,223.5 399.5,224.5C 402.97,224.71 402.97,225.877 399.5,228C 395.5,228.333 391.5,228.667 387.5,229C 393.346,232.173 399.512,233.34 406,232.5C 407.826,234.074 409.993,234.907 412.5,235C 413.77,235.9 414.77,237.066 415.5,238.5C 420.68,240.196 425.513,242.529 430,245.5C 432.574,243.928 434.408,241.762 435.5,239C 429.795,234.489 424.129,229.989 418.5,225.5C 422.559,227.021 426.559,228.854 430.5,231C 434.992,233.998 439.325,237.165 443.5,240.5C 444.167,241.833 445.167,242.833 446.5,243.5C 446.489,245.017 445.823,246.184 444.5,247C 441.032,248.97 437.699,251.136 434.5,253.5C 430.127,249.657 425.46,246.323 420.5,243.5C 411.715,237.957 402.048,234.457 391.5,233C 378.09,231.364 365.09,232.864 352.5,237.5C 354.769,236.024 357.102,234.524 359.5,233C 366.044,232.71 372.377,231.543 378.5,229.5C 376.306,228.368 373.973,227.701 371.5,227.5C 368.518,228.332 365.518,228.499 362.5,228C 361.044,227.577 360.544,226.744 361,225.5C 368.818,225.211 376.485,225.544 384,226.5C 386.473,225.88 388.973,225.214 391.5,224.5C 389.887,223.573 388.221,222.739 386.5,222C 389.865,221.439 392.865,220.939 395.5,220.5 Z"/></g>
<g><path style="opacity:1" fill="#1e4a8c" d="M 384.5,255.5 C 378.401,255.376 372.401,256.043 366.5,257.5C 365.85,257.196 365.183,256.863 364.5,256.5C 361.344,258.966 358.01,259.466 354.5,258C 355.991,255.978 355.658,254.312 353.5,253C 356.544,252.641 356.878,251.974 354.5,251C 356.441,250.257 358.274,250.424 360,251.5C 361.728,248.047 364.562,246.214 368.5,246C 374.189,245.343 379.523,245.676 384.5,247C 387.258,249.402 386.925,251.402 383.5,253C 384.252,253.671 384.586,254.504 384.5,255.5 Z"/></g>
<g><path style="opacity:1" fill="#daf4ec" d="M 481.5,256.5 C 482.062,254.504 481.562,252.504 480,250.5C 477.594,248.017 475.427,245.35 473.5,242.5C 466.149,246.861 458.816,251.194 451.5,255.5C 451.833,254.167 452.167,252.833 452.5,251.5C 455.55,252.077 457.55,250.91 458.5,248C 462.403,247.544 465.403,245.71 467.5,242.5C 470.157,241.741 472.823,241.074 475.5,240.5C 477.506,244.513 480.006,248.18 483,251.5C 483.167,252.333 483.333,253.167 483.5,254C 483.316,255.376 482.649,256.209 481.5,256.5 Z"/></g>
<g><path style="opacity:1" fill="#23497d" d="M 111.5,228.5 C 111.5,230.167 111.5,231.833 111.5,233.5C 107.364,233.401 105.031,235.401 104.5,239.5C 103.675,240.386 102.675,240.719 101.5,240.5C 101.421,241.93 101.754,243.264 102.5,244.5C 101.51,248.105 100.844,251.772 100.5,255.5C 101.5,255.5 102.5,255.5 103.5,255.5C 103.286,257.144 103.62,258.644 104.5,260C 102.965,260.496 101.465,260.33 100,259.5C 98.9412,259.63 98.1079,260.13 97.5,261C 98.4884,264.745 99.155,268.578 99.5,272.5C 98.3995,270.723 97.5662,268.723 97,266.5C 94.1017,250.672 98.935,238.005 111.5,228.5 Z"/></g>
<g><path style="opacity:1" fill="#1d4276" d="M 171.5,251.5 C 186.5,251.5 201.5,251.5 216.5,251.5C 202.698,252.865 188.698,254.199 174.5,255.5C 173.016,254.533 172.016,253.2 171.5,251.5 Z"/></g>
<g><path style="opacity:1" fill="#edf5f6" d="M 420.5,243.5 C 413.129,240.912 405.462,238.746 397.5,237C 398.696,236.346 398.696,235.846 397.5,235.5C 396.707,235.931 395.873,236.265 395,236.5C 387.268,234.594 379.435,234.094 371.5,235C 366.643,236.708 361.643,237.875 356.5,238.5C 354.288,239.74 352.455,241.407 351,243.5C 350.667,243.167 350.333,242.833 350,242.5C 348.016,244.613 345.516,245.78 342.5,246C 341.125,248.477 339.291,249.311 337,248.5C 334.732,250.397 334.399,252.397 336,254.5C 337.261,254.241 338.261,253.574 339,252.5C 339.689,253.357 340.522,254.023 341.5,254.5C 342.435,251.898 344.102,249.898 346.5,248.5C 347.167,248.833 347.833,249.167 348.5,249.5C 351.656,247.837 354.989,246.67 358.5,246C 359.495,244.166 360.995,242.999 363,242.5C 367.799,241.753 372.633,241.753 377.5,242.5C 358.558,245.079 342.892,253.745 330.5,268.5C 330.167,269.167 329.833,269.833 329.5,270.5C 318.772,283.855 313.939,299.188 315,316.5C 315.278,317.416 315.778,318.082 316.5,318.5C 316.833,319.167 317.167,319.833 317.5,320.5C 316.761,320.369 316.094,320.536 315.5,321C 316.956,321.423 317.456,322.256 317,323.5C 316.333,322.167 315.667,322.167 315,323.5C 314.604,321.04 313.437,319.04 311.5,317.5C 312.54,311.35 313.54,305.184 314.5,299C 313.66,297.829 312.827,296.662 312,295.5C 310.691,297.891 309.691,297.891 309,295.5C 307.329,299.893 305.829,304.226 304.5,308.5C 304.5,306.833 304.5,305.167 304.5,303.5C 309.323,273.348 325.323,251.348 352.5,237.5C 365.09,232.864 378.09,231.364 391.5,233C 402.048,234.457 411.715,237.957 420.5,243.5 Z"/></g>
<g><path style="opacity:1" fill="#e2eef3" d="M 241.5,240.5 C 239.11,244.72 236.443,249.22 233.5,254C 234.622,259.316 236.289,264.483 238.5,269.5C 242.371,270.141 243.038,271.641 240.5,274C 243.622,275.244 247.122,276.411 251,277.5C 255.572,278.618 260.405,278.618 265.5,277.5C 266.28,274.899 267.946,272.899 270.5,271.5C 271.642,266.254 273.642,261.587 276.5,257.5C 276.887,262.08 276.053,266.414 274,270.5C 271.295,273.036 268.795,275.703 266.5,278.5C 250.008,284.835 238.508,279.835 232,263.5C 230.28,253.629 233.447,245.962 241.5,240.5 Z"/></g>
<g><path style="opacity:1" fill="#127a4f" d="M 481.5,256.5 C 478.167,258.833 474.833,261.167 471.5,263.5C 471.869,261.559 472.536,259.725 473.5,258C 472.833,257.667 472.167,257.333 471.5,257C 473.044,256.71 474.377,256.044 475.5,255C 474.359,254.259 474.359,253.425 475.5,252.5C 472.656,251.958 469.656,250.958 466.5,249.5C 465.5,249.667 464.5,249.833 463.5,250C 462.5,252.333 460.833,254 458.5,255C 460.351,256.684 462.018,258.517 463.5,260.5C 460.87,263.556 457.87,264.389 454.5,263C 454.833,262.667 455.167,262.333 455.5,262C 451.147,259.322 446.814,259.489 442.5,262.5C 445.19,259.815 448.19,257.482 451.5,255.5C 458.816,251.194 466.149,246.861 473.5,242.5C 475.427,245.35 477.594,248.017 480,250.5C 481.562,252.504 482.062,254.504 481.5,256.5 Z"/></g>
<g><path style="opacity:1" fill="#27497e" d="M 377.5,242.5 C 379.527,242.338 381.527,242.505 383.5,243C 389.719,246.653 390.052,250.82 384.5,255.5C 384.586,254.504 384.252,253.671 383.5,253C 386.925,251.402 387.258,249.402 384.5,247C 379.523,245.676 374.189,245.343 368.5,246C 364.562,246.214 361.728,248.047 360,251.5C 358.274,250.424 356.441,250.257 354.5,251C 356.878,251.974 356.544,252.641 353.5,253C 355.658,254.312 355.991,255.978 354.5,258C 358.01,259.466 361.344,258.966 364.5,256.5C 365.183,256.863 365.85,257.196 366.5,257.5C 352.084,263.248 341.084,272.914 333.5,286.5C 333.34,284.801 333.506,283.134 334,281.5C 335.871,280.003 336.871,278.003 337,275.5C 337.333,275.833 337.667,276.167 338,276.5C 338.483,275.552 338.649,274.552 338.5,273.5C 342.082,272.404 344.082,269.904 344.5,266C 347.625,264.181 350.625,262.181 353.5,260C 347.626,257.841 342.293,258.841 337.5,263C 339.929,263.451 340.096,264.285 338,265.5C 337.586,265.043 337.086,264.709 336.5,264.5C 334.867,266.503 332.867,267.836 330.5,268.5C 342.892,253.745 358.558,245.079 377.5,242.5 Z"/></g>
<g><path style="opacity:1" fill="#1c4b91" d="M 183.5,254.5 C 191.84,254.334 200.173,254.5 208.5,255C 210.51,256.954 213.51,258.12 217.5,258.5C 217.5,259.833 217.5,261.167 217.5,262.5C 216.448,262.351 215.448,262.517 214.5,263C 215.696,263.654 215.696,264.154 214.5,264.5C 211.965,262.128 209.298,261.628 206.5,263C 196.167,263.667 185.833,263.667 175.5,263C 172.733,262.331 172.233,261.164 174,259.5C 185.148,260.801 196.314,260.801 207.5,259.5C 207.291,258.914 206.957,258.414 206.5,258C 196.167,257.667 185.833,257.333 175.5,257C 178.166,255.939 180.833,255.106 183.5,254.5 Z"/></g>
<g><path style="opacity:1" fill="#2a4d79" d="M 120.5,239.5 C 109.286,250.868 108.619,262.868 118.5,275.5C 116.148,274.434 113.814,273.267 111.5,272C 112.983,269.427 112.483,267.26 110,265.5C 109.36,258.718 110.027,252.051 112,245.5C 112.333,245.833 112.667,246.167 113,246.5C 114.009,244.975 114.509,243.308 114.5,241.5C 116.5,240.833 118.5,240.167 120.5,239.5 Z"/></g>
<g><path style="opacity:1" fill="#02824f" d="M 471.5,263.5 C 469.45,265.547 467.117,267.214 464.5,268.5C 463.178,268.67 462.011,268.337 461,267.5C 460.085,269.918 458.585,271.918 456.5,273.5C 454.076,276.093 451.242,278.093 448,279.5C 447.658,277.182 448.158,275.015 449.5,273C 448.667,272.167 447.833,271.333 447,270.5C 445.985,275.803 444.152,280.803 441.5,285.5C 438.818,289.019 435.485,290.519 431.5,290C 433.037,291.11 433.703,292.61 433.5,294.5C 430.996,294.828 429.162,296.162 428,298.5C 427,297.167 426,297.167 425,298.5C 426.628,293.962 425.295,290.629 421,288.5C 417.574,289.856 416.741,292.19 418.5,295.5C 418.167,296.5 417.5,297.167 416.5,297.5C 415.319,295.865 415.319,294.198 416.5,292.5C 415.294,290.206 414.294,287.873 413.5,285.5C 417.024,285.071 420.024,283.571 422.5,281C 420.417,279.68 420.751,278.346 423.5,277C 426.379,276.043 428.879,276.543 431,278.5C 431.677,271.503 434.01,271.503 438,278.5C 438.624,276.536 438.124,274.869 436.5,273.5C 438.973,271.902 438.973,270.402 436.5,269C 438.548,267.044 440.214,264.877 441.5,262.5C 441.833,262.5 442.167,262.5 442.5,262.5C 446.814,259.489 451.147,259.322 455.5,262C 455.167,262.333 454.833,262.667 454.5,263C 457.87,264.389 460.87,263.556 463.5,260.5C 462.018,258.517 460.351,256.684 458.5,255C 460.833,254 462.5,252.333 463.5,250C 464.5,249.833 465.5,249.667 466.5,249.5C 469.656,250.958 472.656,251.958 475.5,252.5C 474.359,253.425 474.359,254.259 475.5,255C 474.377,256.044 473.044,256.71 471.5,257C 472.167,257.333 472.833,257.667 473.5,258C 472.536,259.725 471.869,261.559 471.5,263.5 Z"/></g>
<g><path style="opacity:1" fill="#f6f8f8" d="M 171.5,266.5 C 186.833,266.5 202.167,266.5 217.5,266.5C 220.844,279.843 228.844,289.176 241.5,294.5C 242.209,295.404 243.209,295.737 244.5,295.5C 243.084,317.49 241.751,339.49 240.5,361.5C 240.5,362.167 240.5,362.833 240.5,363.5C 239.833,365.5 239.167,367.5 238.5,369.5C 234.505,365.51 230.171,361.844 225.5,358.5C 224.526,356.257 224.192,353.924 224.5,351.5C 225.577,339.045 221.577,328.712 212.5,320.5C 212.167,320.5 211.833,320.5 211.5,320.5C 200.919,310.924 188.752,308.257 175,312.5C 172.897,309.941 171.064,307.274 169.5,304.5C 166.822,298.315 163.489,292.481 159.5,287C 165.429,281.311 169.429,274.478 171.5,266.5 Z"/></g>
<g><path style="opacity:1" fill="#244b83" d="M 285.5,197.5 C 283.088,201.993 280.922,206.66 279,211.5C 275.339,215.691 272.172,220.358 269.5,225.5C 268.833,224.833 268.167,224.167 267.5,223.5C 264.878,224.952 263.212,227.119 262.5,230C 259.527,230.383 256.694,229.883 254,228.5C 249.624,230.526 245.124,230.86 240.5,229.5C 239.534,231.396 239.201,233.396 239.5,235.5C 242.854,235.931 245.687,234.931 248,232.5C 253.507,233.605 258.84,234.272 264,234.5C 264.739,233.426 265.739,232.759 267,232.5C 274.01,233.561 274.177,235.061 267.5,237C 266.748,237.671 266.414,238.504 266.5,239.5C 262.975,237.013 258.975,236.013 254.5,236.5C 249.371,235.728 245.038,237.061 241.5,240.5C 233.447,245.962 230.28,253.629 232,263.5C 238.508,279.835 250.008,284.835 266.5,278.5C 266.586,279.496 266.252,280.329 265.5,281C 260.995,280.943 257.161,282.443 254,285.5C 247.641,284.903 242.475,282.07 238.5,277C 235.636,275.587 232.97,274.087 230.5,272.5C 230.244,274.792 230.577,276.959 231.5,279C 228.934,280.626 229.101,282.126 232,283.5C 232.617,282.551 232.451,281.718 231.5,281C 234.227,280.182 236.894,280.348 239.5,281.5C 237.295,282.871 235.628,284.704 234.5,287C 235.385,289.157 237.052,289.99 239.5,289.5C 240.574,285.086 242.907,284.92 246.5,289C 245.146,290.294 243.812,290.46 242.5,289.5C 241.5,289.833 240.833,290.5 240.5,291.5C 242.184,292.15 243.517,293.15 244.5,294.5C 243.5,294.5 242.5,294.5 241.5,294.5C 228.844,289.176 220.844,279.843 217.5,266.5C 218.376,266.369 219.043,266.702 219.5,267.5C 220.041,269.535 220.708,271.535 221.5,273.5C 223.134,273.968 224.3,274.968 225,276.5C 226.067,275.057 227.234,273.724 228.5,272.5C 227.41,271.391 227.41,270.391 228.5,269.5C 229.192,270.025 229.692,270.692 230,271.5C 230.517,264.542 230.35,257.542 229.5,250.5C 230.915,246.378 233.248,242.878 236.5,240C 234.427,239.882 233.093,238.882 232.5,237C 234.147,230.569 238.313,226.735 245,225.5C 245.772,225.645 246.439,225.978 247,226.5C 252.417,225.691 257.917,225.191 263.5,225C 261.657,224.841 260.991,224.341 261.5,223.5C 263.099,223.768 264.432,223.434 265.5,222.5C 266.978,222.762 268.311,222.429 269.5,221.5C 274.361,213.09 279.694,205.09 285.5,197.5 Z"/></g>
<g><path style="opacity:1" fill="#254b83" d="M 267.5,239.5 C 272.701,239.701 275.701,242.368 276.5,247.5C 277.552,247.351 278.552,247.517 279.5,248C 278.654,251.622 278.654,255.455 279.5,259.5C 281.106,257.488 282.273,255.155 283,252.5C 284.011,251.663 285.178,251.33 286.5,251.5C 286.048,255.163 285.548,258.83 285,262.5C 283.434,263.061 282.101,262.394 281,260.5C 280.727,262.101 280.227,263.601 279.5,265C 280.944,266.126 281.61,267.626 281.5,269.5C 278.277,272.624 278.944,274.291 283.5,274.5C 284.759,270.959 285.759,267.292 286.5,263.5C 287.5,263.5 288.5,263.5 289.5,263.5C 285.755,271.096 282.422,278.763 279.5,286.5C 279.665,283.482 279.498,280.482 279,277.5C 278.803,275.139 277.636,273.472 275.5,272.5C 274.851,274.624 274.017,276.624 273,278.5C 270.88,277.395 268.713,277.395 266.5,278.5C 268.795,275.703 271.295,273.036 274,270.5C 276.053,266.414 276.887,262.08 276.5,257.5C 276.167,250.166 273.167,244.166 267.5,239.5 Z"/></g>
<g><path style="opacity:1" fill="#264a79" d="M 155.5,267.5 C 155.662,269.527 155.495,271.527 155,273.5C 151.876,275.991 149.043,278.825 146.5,282C 140.167,282.667 133.833,282.667 127.5,282C 126.944,281.617 126.611,281.117 126.5,280.5C 139.26,282.951 148.927,278.618 155.5,267.5 Z"/></g>
<g><path style="opacity:1" fill="#274b7f" d="M 171.5,266.5 C 169.429,274.478 165.429,281.311 159.5,287C 163.489,292.481 166.822,298.315 169.5,304.5C 168.069,303.918 166.736,303.085 165.5,302C 162.93,300.008 161.264,297.842 160.5,295.5C 159.996,298.342 158.329,299.675 155.5,299.5C 157.504,293.673 159.004,287.673 160,281.5C 163.359,276.106 167.192,271.106 171.5,266.5 Z"/></g>
<g><path style="opacity:1" fill="#314f78" d="M 298.5,271.5 C 298.196,274.522 297.696,277.522 297,280.5C 296.329,281.252 295.496,281.586 294.5,281.5C 295.321,277.873 296.654,274.54 298.5,271.5 Z"/></g>
<g><path style="opacity:1" fill="#1d498c" d="M 304.5,303.5 C 303.504,303.414 302.671,303.748 302,304.5C 301.774,307.095 301.274,309.595 300.5,312C 301.78,314.132 301.78,316.298 300.5,318.5C 301.304,319.941 301.971,321.441 302.5,323C 301.575,328.116 301.242,333.283 301.5,338.5C 302.5,338.5 303.5,338.5 304.5,338.5C 304.77,342.358 306.103,345.691 308.5,348.5C 309.774,349.189 309.774,350.023 308.5,351C 311.006,352.516 311.84,354.682 311,357.5C 309.146,360.281 307.146,362.948 305,365.5C 303.829,362.745 302.496,360.079 301,357.5C 300.329,356.748 299.496,356.414 298.5,356.5C 294.618,348.976 292.285,340.976 291.5,332.5C 290.473,322.856 290.307,313.189 291,303.5C 292.494,296.21 293.66,288.877 294.5,281.5C 295.496,281.586 296.329,281.252 297,280.5C 297.696,277.522 298.196,274.522 298.5,271.5C 300.464,270.218 302.464,268.885 304.5,267.5C 306.071,268.309 307.738,268.643 309.5,268.5C 309.67,267.178 309.337,266.011 308.5,265C 307.022,263.807 305.688,263.307 304.5,263.5C 308.776,261.055 311.276,257.389 312,252.5C 314.209,250.627 316.042,248.46 317.5,246C 319.112,245.28 320.612,245.446 322,246.5C 323.948,242.097 327.114,238.93 331.5,237C 331.167,236.667 330.833,236.333 330.5,236C 332.747,234.626 334.913,233.126 337,231.5C 338.28,231.613 339.113,232.28 339.5,233.5C 338.252,235.459 336.585,236.959 334.5,238C 335.127,240.343 336.127,242.51 337.5,244.5C 335.941,246.131 333.941,246.964 331.5,247C 327.982,249.905 325.316,253.405 323.5,257.5C 322.241,254.23 319.908,252.563 316.5,252.5C 315.608,255.157 314.274,257.657 312.5,260C 314.615,261.399 316.281,263.232 317.5,265.5C 316.03,267.972 314.03,269.805 311.5,271C 311.833,271.333 312.167,271.667 312.5,272C 311.469,275.039 309.635,277.539 307,279.5C 305.074,287.373 304.24,295.373 304.5,303.5 Z"/></g>
<g><path style="opacity:1" fill="#f2f6f6" d="M 290.5,245.5 C 292.017,245.511 293.184,246.177 294,247.5C 294.667,252.5 294.667,257.5 294,262.5C 288.943,267.472 287.777,273.138 290.5,279.5C 291.251,278.624 291.751,277.624 292,276.5C 292.308,277.308 292.808,277.975 293.5,278.5C 295.053,273.726 296.886,269.06 299,264.5C 299.908,262.561 301.408,261.561 303.5,261.5C 301.804,264.85 300.137,268.183 298.5,271.5C 296.654,274.54 295.321,277.873 294.5,281.5C 292.194,286.484 290.694,291.817 290,297.5C 289.333,308.167 289.333,318.833 290,329.5C 290.232,330.737 290.732,331.737 291.5,332.5C 292.285,340.976 294.618,348.976 298.5,356.5C 300.446,360.439 302.779,364.106 305.5,367.5C 309.793,364.216 313.126,360.216 315.5,355.5C 318.145,358.485 317.811,361.319 314.5,364C 309.695,365.185 308.361,368.018 310.5,372.5C 310,372.833 309.5,373.167 309,373.5C 306.991,372.518 306.491,371.185 307.5,369.5C 304.229,367.898 301.062,366.898 298,366.5C 297.517,367.448 297.351,368.448 297.5,369.5C 294.074,369.35 293.741,370.516 296.5,373C 296.074,376.592 294.074,378.092 290.5,377.5C 290.22,380.388 291.553,381.888 294.5,382C 294.167,382.333 293.833,382.667 293.5,383C 295.409,385.3 296.743,387.8 297.5,390.5C 295.127,392.579 293.794,395.246 293.5,398.5C 293.5,398.833 293.5,399.167 293.5,399.5C 292.5,399.833 291.833,400.5 291.5,401.5C 287.137,406.858 282.803,412.191 278.5,417.5C 276.248,417.916 274.748,419.249 274,421.5C 273.667,421.167 273.333,420.833 273,420.5C 270.636,425.909 267.302,430.576 263,434.5C 262.667,434.167 262.333,433.833 262,433.5C 260.133,437.891 258.3,442.224 256.5,446.5C 256.5,447.167 256.167,447.5 255.5,447.5C 254.5,447.5 253.5,447.5 252.5,447.5C 252.649,446.448 252.483,445.448 252,444.5C 243.867,435.879 236.033,427.212 228.5,418.5C 231.034,417.162 230.7,416.162 227.5,415.5C 225.867,416.744 224.867,416.244 224.5,414C 224.626,410.565 226.126,408.065 229,406.5C 229.218,403.574 229.718,400.74 230.5,398C 229.107,396.829 228.273,395.329 228,393.5C 227.667,393.833 227.333,394.167 227,394.5C 226.311,391.592 225.145,388.925 223.5,386.5C 223.846,385.304 224.346,385.304 225,386.5C 225.464,385.906 225.631,385.239 225.5,384.5C 227.47,387.328 229.303,390.328 231,393.5C 233.159,400.471 235.159,407.471 237,414.5C 242.309,419.896 247.475,425.396 252.5,431C 253.332,431.688 253.998,431.521 254.5,430.5C 259.857,423.481 265.191,416.481 270.5,409.5C 274.783,404.263 277.45,398.263 278.5,391.5C 282.594,385.021 287.427,379.021 293,373.5C 292.937,370.046 291.771,367.046 289.5,364.5C 288.537,361.931 287.204,359.598 285.5,357.5C 279.602,360.893 274.435,365.226 270,370.5C 269.809,368.292 269.309,366.292 268.5,364.5C 267.706,344.129 266.373,323.796 264.5,303.5C 264.336,300.813 264.503,298.146 265,295.5C 268.537,294.346 271.703,292.679 274.5,290.5C 275.167,290.5 275.5,290.167 275.5,289.5C 277.404,289.262 278.738,288.262 279.5,286.5C 282.422,278.763 285.755,271.096 289.5,263.5C 289.5,263.167 289.5,262.833 289.5,262.5C 291.432,260.456 292.432,257.956 292.5,255C 292.066,251.767 291.399,248.6 290.5,245.5 Z"/></g>
<g><path style="opacity:1" fill="#2d4c76" d="M 99.5,272.5 C 102.837,273.484 104.337,275.817 104,279.5C 115.565,292.99 129.398,297.324 145.5,292.5C 145.833,293.167 146.167,293.833 146.5,294.5C 130.911,299.467 117.411,296.134 106,284.5C 103.046,280.925 100.879,276.925 99.5,272.5 Z"/></g>
<g><path style="opacity:1" fill="#1c4a8d" d="M 333.5,286.5 C 333.5,286.833 333.5,287.167 333.5,287.5C 332.417,287.539 331.417,287.873 330.5,288.5C 329.645,290.955 328.645,293.288 327.5,295.5C 325.705,301.084 324.871,307.084 325,313.5C 323.615,314.551 322.615,315.884 322,317.5C 320.812,316.437 320.312,315.103 320.5,313.5C 319.5,313.5 318.5,313.5 317.5,313.5C 316.315,315.626 316.315,314.293 317.5,309.5C 320.803,306.699 321.469,303.699 319.5,300.5C 320.269,297.885 320.603,295.219 320.5,292.5C 325.033,294.13 326.366,292.63 324.5,288C 325.938,287.781 327.271,287.281 328.5,286.5C 327.711,284.512 326.545,284.179 325,285.5C 323.314,281.822 324.314,278.822 328,276.5C 328.505,274.482 329.005,272.482 329.5,270.5C 329.833,269.833 330.167,269.167 330.5,268.5C 332.867,267.836 334.867,266.503 336.5,264.5C 337.086,264.709 337.586,265.043 338,265.5C 340.096,264.285 339.929,263.451 337.5,263C 342.293,258.841 347.626,257.841 353.5,260C 350.625,262.181 347.625,264.181 344.5,266C 344.082,269.904 342.082,272.404 338.5,273.5C 338.649,274.552 338.483,275.552 338,276.5C 337.667,276.167 337.333,275.833 337,275.5C 336.871,278.003 335.871,280.003 334,281.5C 333.506,283.134 333.34,284.801 333.5,286.5 Z"/></g>
<g><path style="opacity:1" fill="#d7f2e9" d="M 415.5,280.5 C 408.206,286.489 400.873,292.489 393.5,298.5C 393.735,294.676 395.735,292.676 399.5,292.5C 399.281,291.325 399.614,290.325 400.5,289.5C 404.53,287.637 407.363,284.637 409,280.5C 410.9,279.586 413.066,279.586 415.5,280.5 Z"/></g>
<g><path style="opacity:1" fill="#294d85" d="M 329.5,270.5 C 329.005,272.482 328.505,274.482 328,276.5C 324.314,278.822 323.314,281.822 325,285.5C 326.545,284.179 327.711,284.512 328.5,286.5C 327.271,287.281 325.938,287.781 324.5,288C 326.366,292.63 325.033,294.13 320.5,292.5C 320.603,295.219 320.269,297.885 319.5,300.5C 321.469,303.699 320.803,306.699 317.5,309.5C 316.315,314.293 316.315,315.626 317.5,313.5C 318.5,313.5 319.5,313.5 320.5,313.5C 320.312,315.103 320.812,316.437 322,317.5C 322.615,315.884 323.615,314.551 325,313.5C 324.871,307.084 325.705,301.084 327.5,295.5C 326.793,301.8 326.293,308.133 326,314.5C 325.5,315.5 325,316.5 324.5,317.5C 321.914,318.48 319.247,318.813 316.5,318.5C 315.778,318.082 315.278,317.416 315,316.5C 313.939,299.188 318.772,283.855 329.5,270.5 Z"/></g>
<g><path style="opacity:1" fill="#0d7e50" d="M 441.5,262.5 C 440.214,264.877 438.548,267.044 436.5,269C 438.973,270.402 438.973,271.902 436.5,273.5C 438.124,274.869 438.624,276.536 438,278.5C 434.01,271.503 431.677,271.503 431,278.5C 428.879,276.543 426.379,276.043 423.5,277C 420.751,278.346 420.417,279.68 422.5,281C 420.024,283.571 417.024,285.071 413.5,285.5C 414.294,287.873 415.294,290.206 416.5,292.5C 415.319,294.198 415.319,295.865 416.5,297.5C 417.5,297.167 418.167,296.5 418.5,295.5C 416.741,292.19 417.574,289.856 421,288.5C 425.295,290.629 426.628,293.962 425,298.5C 426,297.167 427,297.167 428,298.5C 429.162,296.162 430.996,294.828 433.5,294.5C 433.703,292.61 433.037,291.11 431.5,290C 435.485,290.519 438.818,289.019 441.5,285.5C 444.152,280.803 445.985,275.803 447,270.5C 447.833,271.333 448.667,272.167 449.5,273C 448.158,275.015 447.658,277.182 448,279.5C 451.242,278.093 454.076,276.093 456.5,273.5C 458.585,271.918 460.085,269.918 461,267.5C 462.011,268.337 463.178,268.67 464.5,268.5C 461.694,271.728 458.694,274.728 455.5,277.5C 433.321,295.006 412.654,314.339 393.5,335.5C 383.823,345.845 374.49,356.512 365.5,367.5C 363.194,370.473 360.527,373.14 357.5,375.5C 357.197,372.412 358.53,370.746 361.5,370.5C 361.966,368.799 361.966,367.299 361.5,366C 362.035,363.891 363.035,363.391 364.5,364.5C 367.071,363.272 368.405,361.272 368.5,358.5C 371.187,357.336 373.52,355.503 375.5,353C 374.146,351.706 372.812,351.54 371.5,352.5C 368.107,344.947 370.441,339.947 378.5,337.5C 381.189,337.545 382.523,338.879 382.5,341.5C 386.725,341.111 389.225,338.778 390,334.5C 392.167,333 394,331.167 395.5,329C 396.448,328.517 397.448,328.351 398.5,328.5C 398.137,326.089 399.137,324.589 401.5,324C 396.931,321.113 392.598,317.78 388.5,314C 391.754,311.658 393.588,308.491 394,304.5C 396.205,303.387 398.038,302.387 399.5,301.5C 399.67,302.822 399.337,303.989 398.5,305C 399.068,306.604 400.068,307.27 401.5,307C 403.361,305.972 404.695,304.472 405.5,302.5C 402.807,301.149 400.307,299.482 398,297.5C 395.879,300.325 393.046,303.158 389.5,306C 387.754,306.471 386.087,307.138 384.5,308C 380.606,311.404 376.606,314.571 372.5,317.5C 372.833,316.833 373.167,316.167 373.5,315.5C 379.823,310.509 385.823,305.176 391.5,299.5C 392.167,299.167 392.833,298.833 393.5,298.5C 400.873,292.489 408.206,286.489 415.5,280.5C 423.891,274.11 432.558,268.11 441.5,262.5 Z"/></g>
<g><path style="opacity:1" fill="#304e79" d="M 274.5,290.5 C 271.703,292.679 268.537,294.346 265,295.5C 264.503,298.146 264.336,300.813 264.5,303.5C 262.719,300.817 262.219,297.817 263,294.5C 266.599,292.449 270.432,291.115 274.5,290.5 Z"/></g>
<g><path style="opacity:1" fill="#274671" d="M 333.5,287.5 C 328.854,296.558 326.687,306.225 327,316.5C 324.85,319.963 321.684,321.296 317.5,320.5C 317.167,319.833 316.833,319.167 316.5,318.5C 319.247,318.813 321.914,318.48 324.5,317.5C 325,316.5 325.5,315.5 326,314.5C 326.293,308.133 326.793,301.8 327.5,295.5C 328.645,293.288 329.645,290.955 330.5,288.5C 331.417,287.873 332.417,287.539 333.5,287.5 Z"/></g>
<g><path style="opacity:1" fill="#d0efe5" d="M 391.5,299.5 C 385.823,305.176 379.823,310.509 373.5,315.5C 373.389,314.883 373.056,314.383 372.5,314C 378.272,307.554 384.606,302.721 391.5,299.5 Z"/></g>
<g><path style="opacity:1" fill="#284e84" d="M 304.5,303.5 C 304.5,305.167 304.5,306.833 304.5,308.5C 304.274,315.876 304.608,323.209 305.5,330.5C 305.475,336.705 306.475,342.705 308.5,348.5C 306.103,345.691 304.77,342.358 304.5,338.5C 303.5,338.5 302.5,338.5 301.5,338.5C 301.242,333.283 301.575,328.116 302.5,323C 301.971,321.441 301.304,319.941 300.5,318.5C 301.78,316.298 301.78,314.132 300.5,312C 301.274,309.595 301.774,307.095 302,304.5C 302.671,303.748 303.504,303.414 304.5,303.5 Z"/></g>
<g><path style="opacity:1" fill="#018250" d="M 357.5,375.5 C 356.5,375.5 355.5,375.5 354.5,375.5C 354.5,376.5 354.5,377.5 354.5,378.5C 352.61,378.297 351.11,378.963 350,380.5C 347.766,382.704 346.599,385.37 346.5,388.5C 345.178,388.33 344.011,388.663 343,389.5C 340.889,397.471 339.056,397.471 337.5,389.5C 335.5,390.167 333.5,390.833 331.5,391.5C 331.335,394.518 331.502,397.518 332,400.5C 332.669,397.972 333.502,397.972 334.5,400.5C 331.878,401.952 330.212,404.119 329.5,407C 327.866,407.494 326.199,407.66 324.5,407.5C 324.5,406.5 324.5,405.5 324.5,404.5C 323.5,404.5 322.5,404.5 321.5,404.5C 321.719,405.675 321.386,406.675 320.5,407.5C 319.104,405.028 318.27,402.362 318,399.5C 317.586,399.957 317.086,400.291 316.5,400.5C 315.833,405.167 315.167,409.833 314.5,414.5C 312.889,415.32 312.222,416.654 312.5,418.5C 315.579,418.196 318.413,417.196 321,415.5C 321.069,420.291 319.069,423.958 315,426.5C 313.908,430.591 311.408,433.424 307.5,435C 308.167,435.333 308.833,435.667 309.5,436C 307.394,437.637 306.728,439.47 307.5,441.5C 302.5,448.833 297.5,456.167 292.5,463.5C 290.926,464.984 289.593,466.651 288.5,468.5C 285.566,469.893 283.066,471.893 281,474.5C 277.965,480.996 274.798,487.33 271.5,493.5C 271.5,494.167 271.5,494.833 271.5,495.5C 270.833,495.833 270.167,496.167 269.5,496.5C 265.947,497.223 263.447,499.223 262,502.5C 261.716,500.114 260.716,499.448 259,500.5C 258.376,502.464 258.876,504.131 260.5,505.5C 259.948,507.333 259.115,509 258,510.5C 256.187,509.324 254.687,507.324 253.5,504.5C 253.167,505.167 252.833,505.833 252.5,506.5C 257.868,514.95 256.701,515.617 249,508.5C 247.5,506.333 246,504.167 244.5,502C 246.235,501.349 247.902,501.515 249.5,502.5C 249.833,502 250.167,501.5 250.5,501C 249.768,499.235 248.435,498.068 246.5,497.5C 246.709,496.914 247.043,496.414 247.5,496C 246.07,494.56 244.403,494.226 242.5,495C 242.833,495.333 243.167,495.667 243.5,496C 242.809,497.067 242.309,498.234 242,499.5C 240.202,497.028 237.868,495.361 235,494.5C 235.591,489.931 233.424,487.431 228.5,487C 229.833,486 229.833,485 228.5,484C 231.234,483.282 231.9,481.782 230.5,479.5C 228.223,479.015 226.056,479.681 224,481.5C 222.916,480.335 222.083,479.002 221.5,477.5C 222.833,476.38 223.333,475.047 223,473.5C 221.556,475.155 219.722,475.822 217.5,475.5C 211.833,469.5 206.167,463.5 200.5,457.5C 193.195,448.418 185.529,439.584 177.5,431C 180.371,428.297 183.038,425.464 185.5,422.5C 191.167,417.833 196.833,413.167 202.5,408.5C 205.482,407.011 208.482,405.844 211.5,405C 214,407.833 216.5,410.667 219,413.5C 219.617,414.449 219.451,415.282 218.5,416C 219.958,418.057 220.792,420.223 221,422.5C 223.562,422.293 226.062,423.126 228.5,425C 237.083,434.01 244.75,442.51 251.5,450.5C 252.723,451.614 254.056,451.781 255.5,451C 256.738,450.31 256.738,449.81 255.5,449.5C 255.5,448.833 255.5,448.167 255.5,447.5C 256.167,447.5 256.5,447.167 256.5,446.5C 256.833,446.5 257.167,446.5 257.5,446.5C 257.81,447.738 258.31,447.738 259,446.5C 269.693,431.238 281.193,416.738 293.5,403C 293.164,401.97 292.497,401.47 291.5,401.5C 291.833,400.5 292.5,399.833 293.5,399.5C 295.153,400.799 296.653,400.466 298,398.5C 303.646,389.832 310.146,381.665 317.5,374C 321.408,374.14 323.575,372.306 324,368.5C 324.333,369.167 324.667,369.833 325,370.5C 325.195,368.793 325.195,367.126 325,365.5C 328.112,362.899 330.612,359.899 332.5,356.5C 334.66,354.15 337.16,353.483 340,354.5C 340.257,352.705 340.923,350.705 342,348.5C 345.207,347.371 348.04,345.038 350.5,341.5C 354.229,343.033 354.896,342.533 352.5,340C 356.112,332.721 361.446,327.054 368.5,323C 370.076,321.27 371.41,319.437 372.5,317.5C 376.606,314.571 380.606,311.404 384.5,308C 386.087,307.138 387.754,306.471 389.5,306C 393.046,303.158 395.879,300.325 398,297.5C 400.307,299.482 402.807,301.149 405.5,302.5C 404.695,304.472 403.361,305.972 401.5,307C 400.068,307.27 399.068,306.604 398.5,305C 399.337,303.989 399.67,302.822 399.5,301.5C 398.038,302.387 396.205,303.387 394,304.5C 393.588,308.491 391.754,311.658 388.5,314C 392.598,317.78 396.931,321.113 401.5,324C 399.137,324.589 398.137,326.089 398.5,328.5C 397.448,328.351 396.448,328.517 395.5,329C 394,331.167 392.167,333 390,334.5C 389.225,338.778 386.725,341.111 382.5,341.5C 382.523,338.879 381.189,337.545 378.5,337.5C 370.441,339.947 368.107,344.947 371.5,352.5C 372.812,351.54 374.146,351.706 375.5,353C 373.52,355.503 371.187,357.336 368.5,358.5C 368.405,361.272 367.071,363.272 364.5,364.5C 363.035,363.391 362.035,363.891 361.5,366C 361.966,367.299 361.966,368.799 361.5,370.5C 358.53,370.746 357.197,372.412 357.5,375.5 Z"/></g>
<g><path style="opacity:1" fill="#e2f1f5" d="M 463.5,284.5 C 461.645,286.033 459.812,287.7 458,289.5C 459.358,301.095 459.691,312.761 459,324.5C 458.453,331.623 456.62,338.29 453.5,344.5C 452.541,340.848 453.375,337.515 456,334.5C 456.9,326.835 457.733,319.169 458.5,311.5C 458.35,306.77 457.35,302.27 455.5,298C 456.833,295 456.833,292 455.5,289C 456.772,287.693 457.772,286.193 458.5,284.5C 460.128,283.465 461.795,283.465 463.5,284.5 Z"/></g>
<g><path style="opacity:1" fill="#2d4b76" d="M 169.5,304.5 C 171.064,307.274 172.897,309.941 175,312.5C 188.752,308.257 200.919,310.924 211.5,320.5C 206.158,317.341 200.491,314.841 194.5,313C 187.508,311.74 180.841,312.574 174.5,315.5C 171.489,312.476 169.822,308.809 169.5,304.5 Z"/></g>
<g><path style="opacity:1" fill="#2b4570" d="M 294.5,281.5 C 293.66,288.877 292.494,296.21 291,303.5C 290.307,313.189 290.473,322.856 291.5,332.5C 290.732,331.737 290.232,330.737 290,329.5C 289.333,318.833 289.333,308.167 290,297.5C 290.694,291.817 292.194,286.484 294.5,281.5 Z"/></g>
<g><path style="opacity:1" fill="#e1f6ee" d="M 455.5,277.5 C 454.549,279.62 453.049,281.286 451,282.5C 450.342,284.108 450.842,285.275 452.5,286C 450.567,286.783 449.067,286.283 448,284.5C 446.513,285.253 446.346,286.086 447.5,287C 441.924,291.041 436.424,295.208 431,299.5C 424.621,307.605 417.788,315.272 410.5,322.5C 409.088,323.806 407.421,324.64 405.5,325C 402.719,327.41 400.385,330.243 398.5,333.5C 396.925,334.456 395.258,335.123 393.5,335.5C 412.654,314.339 433.321,295.006 455.5,277.5 Z"/></g>
<g><path style="opacity:1" fill="#294c82" d="M 145.5,292.5 C 146.833,292.5 148.167,292.5 149.5,292.5C 149.011,296.93 151.011,299.263 155.5,299.5C 155.928,301.405 155.262,303.238 153.5,305C 155.322,307.821 157.489,310.321 160,312.5C 160.595,311.101 160.428,309.768 159.5,308.5C 160.167,308.167 160.833,307.833 161.5,307.5C 163.498,308.967 165.164,310.8 166.5,313C 165.351,314.604 165.351,316.27 166.5,318C 166.241,319.261 165.574,320.261 164.5,321C 165.455,322.717 166.455,324.384 167.5,326C 164.901,326.769 162.401,326.602 160,325.5C 157.495,328.724 154.828,332.39 152,336.5C 151.533,341.337 151.033,346.17 150.5,351C 152.679,356.217 154.012,361.717 154.5,367.5C 146.368,354.245 146.535,340.912 155,327.5C 156.848,324.989 158.681,322.489 160.5,320C 155.701,311.569 151.035,303.069 146.5,294.5C 146.167,293.833 145.833,293.167 145.5,292.5 Z"/></g>
<g><path style="opacity:1" fill="#2a4a78" d="M 471.5,287.5 C 470.374,286.286 469.041,285.286 467.5,284.5C 458.803,288.034 457.136,293.867 462.5,302C 461.679,312.423 461.179,322.923 461,333.5C 458.305,336.611 456.972,340.277 457,344.5C 456.535,345.931 455.701,347.097 454.5,348C 455.258,349.364 454.758,350.531 453,351.5C 452.503,353.81 452.337,356.143 452.5,358.5C 451.127,358.343 449.793,358.51 448.5,359C 446.46,361.185 445.126,363.685 444.5,366.5C 444.229,368.312 443.562,369.978 442.5,371.5C 439.891,372.443 437.891,374.11 436.5,376.5C 433.564,378.138 430.564,379.472 427.5,380.5C 439.592,370.986 448.259,358.986 453.5,344.5C 456.62,338.29 458.453,331.623 459,324.5C 459.691,312.761 459.358,301.095 458,289.5C 459.812,287.7 461.645,286.033 463.5,284.5C 465.175,282.998 467.008,281.665 469,280.5C 470.136,282.743 470.97,285.076 471.5,287.5 Z"/></g>
<g><path style="opacity:1" fill="#2f4e7a" d="M 471.5,289.5 C 478.437,313.89 475.77,337.223 463.5,359.5C 464.484,355.224 465.317,350.891 466,346.5C 467.152,344.351 468.652,342.518 470.5,341C 469.017,338.427 469.517,336.26 472,334.5C 473.54,319.503 473.374,304.503 471.5,289.5 Z"/></g>
<g><path style="opacity:1" fill="#1d4a8d" d="M 169.5,304.5 C 169.822,308.809 171.489,312.476 174.5,315.5C 180.841,312.574 187.508,311.74 194.5,313C 200.491,314.841 206.158,317.341 211.5,320.5C 211.833,320.5 212.167,320.5 212.5,320.5C 214.413,324.262 216.579,327.929 219,331.5C 219.49,332.793 219.657,334.127 219.5,335.5C 219.59,337.696 219.923,339.863 220.5,342C 220.491,343.404 219.991,344.57 219,345.5C 218.273,342.136 217.44,338.803 216.5,335.5C 215.575,336.641 214.741,336.641 214,335.5C 213.883,340.141 213.717,344.308 213.5,348C 214.257,349.512 215.257,350.846 216.5,352C 216.313,355.187 216.313,358.353 216.5,361.5C 213.654,361.03 211.321,361.863 209.5,364C 209.207,366.308 210.041,368.474 212,370.5C 212.333,369.833 212.667,369.167 213,368.5C 215,369.833 217,369.833 219,368.5C 221.325,372.983 223.492,373.15 225.5,369C 224.385,367.765 224.385,366.598 225.5,365.5C 223.197,362.598 224.197,361.764 228.5,363C 229.116,365.179 230.283,367.012 232,368.5C 232.667,370.167 232.667,371.833 232,373.5C 231.667,373.167 231.333,372.833 231,372.5C 228.624,373.376 227.124,375.042 226.5,377.5C 224.929,378.309 223.262,378.643 221.5,378.5C 221.297,376.956 220.63,375.622 219.5,374.5C 214.9,372.521 211.233,373.521 208.5,377.5C 206.556,378.189 204.556,378.689 202.5,379C 200.686,381.412 198.352,382.412 195.5,382C 198.167,380.667 198.167,379.333 195.5,378C 191.844,377.921 188.51,376.921 185.5,375C 189.534,373.332 193.368,373.165 197,374.5C 198.18,372.14 199.347,369.807 200.5,367.5C 203.365,366.809 205.532,365.142 207,362.5C 211.492,355.243 212.326,347.409 209.5,339C 210.476,336.76 211.309,334.593 212,332.5C 209.478,329.674 207.478,330.007 206,333.5C 205.222,331.416 204.055,329.583 202.5,328C 198.783,326.82 195.116,325.487 191.5,324C 189.776,323.552 189.109,322.718 189.5,321.5C 185.492,322.336 181.659,323.669 178,325.5C 177.228,325.355 176.561,325.022 176,324.5C 175.691,325.766 175.191,326.933 174.5,328C 171.03,327.596 169.363,329.43 169.5,333.5C 167.025,336.785 165.358,340.452 164.5,344.5C 163.163,346.349 162.497,348.516 162.5,351C 163.95,355.064 164.95,359.231 165.5,363.5C 160.81,365.222 159.81,368.222 162.5,372.5C 162,372.833 161.5,373.167 161,373.5C 159.039,371.21 156.873,369.21 154.5,367.5C 154.012,361.717 152.679,356.217 150.5,351C 151.033,346.17 151.533,341.337 152,336.5C 154.828,332.39 157.495,328.724 160,325.5C 162.401,326.602 164.901,326.769 167.5,326C 166.455,324.384 165.455,322.717 164.5,321C 165.574,320.261 166.241,319.261 166.5,318C 165.351,316.27 165.351,314.604 166.5,313C 165.164,310.8 163.498,308.967 161.5,307.5C 160.833,307.833 160.167,308.167 159.5,308.5C 160.428,309.768 160.595,311.101 160,312.5C 157.489,310.321 155.322,307.821 153.5,305C 155.262,303.238 155.928,301.405 155.5,299.5C 158.329,299.675 159.996,298.342 160.5,295.5C 161.264,297.842 162.93,300.008 165.5,302C 166.736,303.085 168.069,303.918 169.5,304.5 Z"/></g>
<g><path style="opacity:1" fill="#344f7a" d="M 241.5,294.5 C 242.5,294.5 243.5,294.5 244.5,294.5C 245.166,298.486 245.499,302.653 245.5,307C 244.687,324.515 243.687,342.015 242.5,359.5C 241.833,360.167 241.167,360.833 240.5,361.5C 241.751,339.49 243.084,317.49 244.5,295.5C 243.209,295.737 242.209,295.404 241.5,294.5 Z"/></g>
<g><path style="opacity:1" fill="#f4f7f7" d="M 200.5,367.5 C 185.801,375.061 174.301,371.728 166,357.5C 164.71,353.27 164.21,348.936 164.5,344.5C 165.358,340.452 167.025,336.785 169.5,333.5C 177.294,326.405 186.294,324.571 196.5,328C 210.426,336.643 213.259,348.143 205,362.5C 203.293,364.037 201.793,365.704 200.5,367.5 Z"/></g>
<g><path style="opacity:1" fill="#264a7d" d="M 200.5,367.5 C 201.793,365.704 203.293,364.037 205,362.5C 213.259,348.143 210.426,336.643 196.5,328C 186.294,324.571 177.294,326.405 169.5,333.5C 169.363,329.43 171.03,327.596 174.5,328C 175.191,326.933 175.691,325.766 176,324.5C 176.561,325.022 177.228,325.355 178,325.5C 181.659,323.669 185.492,322.336 189.5,321.5C 189.109,322.718 189.776,323.552 191.5,324C 195.116,325.487 198.783,326.82 202.5,328C 204.055,329.583 205.222,331.416 206,333.5C 207.478,330.007 209.478,329.674 212,332.5C 211.309,334.593 210.476,336.76 209.5,339C 212.326,347.409 211.492,355.243 207,362.5C 205.532,365.142 203.365,366.809 200.5,367.5 Z"/></g>
<g><path style="opacity:1" fill="#305177" d="M 212.5,320.5 C 221.577,328.712 225.577,339.045 224.5,351.5C 223.555,347.127 222.555,342.627 221.5,338C 221.316,336.624 220.649,335.791 219.5,335.5C 219.657,334.127 219.49,332.793 219,331.5C 216.579,327.929 214.413,324.262 212.5,320.5 Z"/></g>
<g><path style="opacity:1" fill="#304d7b" d="M 305.5,330.5 C 307.968,339.114 311.301,347.447 315.5,355.5C 313.126,360.216 309.793,364.216 305.5,367.5C 302.779,364.106 300.446,360.439 298.5,356.5C 299.496,356.414 300.329,356.748 301,357.5C 302.496,360.079 303.829,362.745 305,365.5C 307.146,362.948 309.146,360.281 311,357.5C 311.84,354.682 311.006,352.516 308.5,351C 309.774,350.023 309.774,349.189 308.5,348.5C 306.475,342.705 305.475,336.705 305.5,330.5 Z"/></g>
<g><path style="opacity:1" fill="#1d4a8d" d="M 471.5,287.5 C 471.5,288.167 471.5,288.833 471.5,289.5C 473.374,304.503 473.54,319.503 472,334.5C 469.517,336.26 469.017,338.427 470.5,341C 468.652,342.518 467.152,344.351 466,346.5C 465.317,350.891 464.484,355.224 463.5,359.5C 463.5,359.833 463.5,360.167 463.5,360.5C 462.127,360.343 460.793,360.51 459.5,361C 459.833,361.333 460.167,361.667 460.5,362C 459.111,364.173 457.778,366.339 456.5,368.5C 454.238,367.655 453.571,366.322 454.5,364.5C 453.253,362.677 452.586,360.677 452.5,358.5C 452.337,356.143 452.503,353.81 453,351.5C 454.758,350.531 455.258,349.364 454.5,348C 455.701,347.097 456.535,345.931 457,344.5C 456.972,340.277 458.305,336.611 461,333.5C 461.179,322.923 461.679,312.423 462.5,302C 457.136,293.867 458.803,288.034 467.5,284.5C 469.041,285.286 470.374,286.286 471.5,287.5 Z"/></g>
<g><path style="opacity:1" fill="#1d4a8e" d="M 266.5,278.5 C 268.713,277.395 270.88,277.395 273,278.5C 274.017,276.624 274.851,274.624 275.5,272.5C 277.636,273.472 278.803,275.139 279,277.5C 279.498,280.482 279.665,283.482 279.5,286.5C 278.738,288.262 277.404,289.262 275.5,289.5C 270.676,288.971 266.343,290.138 262.5,293C 260.049,296.425 260.049,299.925 262.5,303.5C 261.311,304.429 259.978,304.762 258.5,304.5C 258.177,308.226 258.511,311.893 259.5,315.5C 259.143,313.077 259.977,310.743 262,308.5C 262.333,309.5 262.667,310.5 263,311.5C 264.453,324.863 264.953,338.196 264.5,351.5C 263.5,351.5 262.5,351.5 261.5,351.5C 261.935,356.582 262.102,361.582 262,366.5C 262.741,367.641 263.575,367.641 264.5,366.5C 264.997,364.784 265.331,363.117 265.5,361.5C 265.833,362.5 266.167,363.5 266.5,364.5C 265.472,367.406 265.472,370.239 266.5,373C 263.617,372.205 262.117,373.371 262,376.5C 262.414,376.957 262.914,377.291 263.5,377.5C 264.9,375.604 266.733,374.271 269,373.5C 270.703,374.7 272.203,374.367 273.5,372.5C 274.429,371.311 274.762,369.978 274.5,368.5C 278.148,365.705 281.981,363.038 286,360.5C 286.333,361.833 286.667,363.167 287,364.5C 287.77,363.402 288.603,363.402 289.5,364.5C 290.321,367.554 290.321,370.554 289.5,373.5C 287.395,374.899 285.562,376.566 284,378.5C 281.925,382.738 280.092,387.071 278.5,391.5C 277.45,398.263 274.783,404.263 270.5,409.5C 268.516,409.383 266.85,410.05 265.5,411.5C 262.789,417.373 259.122,422.539 254.5,427C 251.647,427.659 249.98,426.492 249.5,423.5C 249.785,421.431 250.952,420.098 253,419.5C 253.833,416.333 252.667,415.167 249.5,416C 248.845,417.487 247.845,418.653 246.5,419.5C 243.982,417.815 241.982,415.648 240.5,413C 241.996,411.669 243.329,410.169 244.5,408.5C 242.933,406.104 242.1,403.437 242,400.5C 240.844,399.007 240.01,399.174 239.5,401C 240.587,404.187 240.42,407.353 239,410.5C 235.319,401.621 232.153,392.621 229.5,383.5C 229.586,382.504 229.252,381.671 228.5,381C 230.027,379.632 231.527,379.132 233,379.5C 232.666,375.895 234.166,373.561 237.5,372.5C 238.814,373.313 239.981,374.313 241,375.5C 243.405,373.051 245.905,370.717 248.5,368.5C 250.395,357.443 250.395,346.443 248.5,335.5C 246.271,337.099 245.938,339.099 247.5,341.5C 247.023,342.478 246.357,343.311 245.5,344C 245.771,347.637 246.104,351.303 246.5,355C 245.707,358.411 245.207,361.911 245,365.5C 244.692,366.308 244.192,366.975 243.5,367.5C 242.52,364.914 242.187,362.247 242.5,359.5C 243.687,342.015 244.687,324.515 245.5,307C 245.499,302.653 245.166,298.486 244.5,294.5C 243.517,293.15 242.184,292.15 240.5,291.5C 240.833,290.5 241.5,289.833 242.5,289.5C 243.812,290.46 245.146,290.294 246.5,289C 242.907,284.92 240.574,285.086 239.5,289.5C 237.052,289.99 235.385,289.157 234.5,287C 235.628,284.704 237.295,282.871 239.5,281.5C 236.894,280.348 234.227,280.182 231.5,281C 232.451,281.718 232.617,282.551 232,283.5C 229.101,282.126 228.934,280.626 231.5,279C 230.577,276.959 230.244,274.792 230.5,272.5C 232.97,274.087 235.636,275.587 238.5,277C 242.475,282.07 247.641,284.903 254,285.5C 257.161,282.443 260.995,280.943 265.5,281C 266.252,280.329 266.586,279.496 266.5,278.5 Z"/></g>
<g><path style="opacity:1" fill="#197a51" d="M 372.5,317.5 C 371.41,319.437 370.076,321.27 368.5,323C 361.446,327.054 356.112,332.721 352.5,340C 354.896,342.533 354.229,343.033 350.5,341.5C 348.04,345.038 345.207,347.371 342,348.5C 340.923,350.705 340.257,352.705 340,354.5C 337.16,353.483 334.66,354.15 332.5,356.5C 344.535,342.131 357.869,329.131 372.5,317.5 Z"/></g>
<g><path style="opacity:1" fill="#e5f7f1" d="M 393.5,335.5 C 392.622,338.056 391.289,340.39 389.5,342.5C 392.351,345.409 392.017,348.409 388.5,351.5C 387.148,350.482 386.148,349.149 385.5,347.5C 383.11,348.922 381.11,350.756 379.5,353C 380.765,354.337 381.265,355.837 381,357.5C 379.201,357.721 377.368,358.054 375.5,358.5C 374.749,359.376 374.249,360.376 374,361.5C 373.667,361.167 373.333,360.833 373,360.5C 372.178,362.788 371.511,365.122 371,367.5C 370.692,366.692 370.192,366.025 369.5,365.5C 368.378,366.63 367.044,367.297 365.5,367.5C 374.49,356.512 383.823,345.845 393.5,335.5 Z"/></g>
<g><path style="opacity:1" fill="#274c84" d="M 275.5,289.5 C 275.5,290.167 275.167,290.5 274.5,290.5C 270.432,291.115 266.599,292.449 263,294.5C 262.219,297.817 262.719,300.817 264.5,303.5C 266.373,323.796 267.706,344.129 268.5,364.5C 268.662,366.527 268.495,368.527 268,370.5C 267.346,369.304 266.846,369.304 266.5,370.5C 269.752,371.985 272.419,371.318 274.5,368.5C 274.762,369.978 274.429,371.311 273.5,372.5C 272.203,374.367 270.703,374.7 269,373.5C 266.733,374.271 264.9,375.604 263.5,377.5C 262.914,377.291 262.414,376.957 262,376.5C 262.117,373.371 263.617,372.205 266.5,373C 265.472,370.239 265.472,367.406 266.5,364.5C 266.167,363.5 265.833,362.5 265.5,361.5C 265.331,363.117 264.997,364.784 264.5,366.5C 263.575,367.641 262.741,367.641 262,366.5C 262.102,361.582 261.935,356.582 261.5,351.5C 262.5,351.5 263.5,351.5 264.5,351.5C 264.953,338.196 264.453,324.863 263,311.5C 262.667,310.5 262.333,309.5 262,308.5C 259.977,310.743 259.143,313.077 259.5,315.5C 258.511,311.893 258.177,308.226 258.5,304.5C 259.978,304.762 261.311,304.429 262.5,303.5C 260.049,299.925 260.049,296.425 262.5,293C 266.343,290.138 270.676,288.971 275.5,289.5 Z"/></g>
<g><path style="opacity:1" fill="#2b4f7c" d="M 289.5,364.5 C 288.603,363.402 287.77,363.402 287,364.5C 286.667,363.167 286.333,361.833 286,360.5C 281.981,363.038 278.148,365.705 274.5,368.5C 272.419,371.318 269.752,371.985 266.5,370.5C 266.846,369.304 267.346,369.304 268,370.5C 268.495,368.527 268.662,366.527 268.5,364.5C 269.309,366.292 269.809,368.292 270,370.5C 274.435,365.226 279.602,360.893 285.5,357.5C 287.204,359.598 288.537,361.931 289.5,364.5 Z"/></g>
<g><path style="opacity:1" fill="#1d498f" d="M 426.5,398.5 C 426.5,399.167 426.167,399.5 425.5,399.5C 425.44,398.957 425.107,398.624 424.5,398.5C 421.766,400.371 418.766,401.371 415.5,401.5C 415.393,399.097 416.393,397.264 418.5,396C 416.081,394.491 415.081,392.325 415.5,389.5C 417.189,388.069 419.189,387.236 421.5,387C 422.305,385.887 422.972,384.721 423.5,383.5C 424.436,382.026 425.77,381.026 427.5,380.5C 430.564,379.472 433.564,378.138 436.5,376.5C 437.891,374.11 439.891,372.443 442.5,371.5C 443.562,369.978 444.229,368.312 444.5,366.5C 445.458,366.047 446.292,365.381 447,364.5C 448.721,366.711 450.721,368.711 453,370.5C 453.49,371.793 453.657,373.127 453.5,374.5C 450.915,374.432 448.582,373.932 446.5,373C 444.945,374.583 443.778,376.416 443,378.5C 438.091,380.09 437.591,382.256 441.5,385C 436.732,388.064 432.066,391.23 427.5,394.5C 426.754,395.736 426.421,397.07 426.5,398.5 Z"/></g>
<g><path style="opacity:1" fill="#1e4a87" d="M 219.5,335.5 C 220.649,335.791 221.316,336.624 221.5,338C 222.555,342.627 223.555,347.127 224.5,351.5C 224.192,353.924 224.526,356.257 225.5,358.5C 230.171,361.844 234.505,365.51 238.5,369.5C 238.56,370.043 238.893,370.376 239.5,370.5C 240.474,368.257 240.808,365.924 240.5,363.5C 240.5,362.833 240.5,362.167 240.5,361.5C 241.167,360.833 241.833,360.167 242.5,359.5C 242.187,362.247 242.52,364.914 243.5,367.5C 244.192,366.975 244.692,366.308 245,365.5C 245.207,361.911 245.707,358.411 246.5,355C 246.104,351.303 245.771,347.637 245.5,344C 246.357,343.311 247.023,342.478 247.5,341.5C 245.938,339.099 246.271,337.099 248.5,335.5C 250.395,346.443 250.395,357.443 248.5,368.5C 245.905,370.717 243.405,373.051 241,375.5C 239.981,374.313 238.814,373.313 237.5,372.5C 234.166,373.561 232.666,375.895 233,379.5C 231.527,379.132 230.027,379.632 228.5,381C 229.252,381.671 229.586,382.504 229.5,383.5C 228.167,383.5 226.833,383.5 225.5,383.5C 223.937,382.055 222.604,380.389 221.5,378.5C 223.262,378.643 224.929,378.309 226.5,377.5C 227.124,375.042 228.624,373.376 231,372.5C 231.333,372.833 231.667,373.167 232,373.5C 232.667,371.833 232.667,370.167 232,368.5C 230.283,367.012 229.116,365.179 228.5,363C 224.197,361.764 223.197,362.598 225.5,365.5C 224.385,366.598 224.385,367.765 225.5,369C 223.492,373.15 221.325,372.983 219,368.5C 217,369.833 215,369.833 213,368.5C 212.667,369.167 212.333,369.833 212,370.5C 210.041,368.474 209.207,366.308 209.5,364C 211.321,361.863 213.654,361.03 216.5,361.5C 216.313,358.353 216.313,355.187 216.5,352C 215.257,350.846 214.257,349.512 213.5,348C 213.717,344.308 213.883,340.141 214,335.5C 214.741,336.641 215.575,336.641 216.5,335.5C 217.44,338.803 218.273,342.136 219,345.5C 219.991,344.57 220.491,343.404 220.5,342C 219.923,339.863 219.59,337.696 219.5,335.5 Z"/></g>
<g><path style="opacity:1" fill="#7596c1" d="M 240.5,363.5 C 240.808,365.924 240.474,368.257 239.5,370.5C 238.893,370.376 238.56,370.043 238.5,369.5C 239.167,367.5 239.833,365.5 240.5,363.5 Z"/></g>
<g><path style="opacity:1" fill="#224a85" d="M 164.5,344.5 C 164.21,348.936 164.71,353.27 166,357.5C 174.301,371.728 185.801,375.061 200.5,367.5C 199.347,369.807 198.18,372.14 197,374.5C 193.368,373.165 189.534,373.332 185.5,375C 188.51,376.921 191.844,377.921 195.5,378C 198.167,379.333 198.167,380.667 195.5,382C 198.352,382.412 200.686,381.412 202.5,379C 204.556,378.689 206.556,378.189 208.5,377.5C 211.233,373.521 214.9,372.521 219.5,374.5C 220.63,375.622 221.297,376.956 221.5,378.5C 219.814,376.984 217.981,375.65 216,374.5C 205.025,384.379 192.192,388.212 177.5,386C 169.333,383.495 162.5,378.995 157,372.5C 155.906,370.922 155.072,369.255 154.5,367.5C 156.873,369.21 159.039,371.21 161,373.5C 161.5,373.167 162,372.833 162.5,372.5C 159.81,368.222 160.81,365.222 165.5,363.5C 164.95,359.231 163.95,355.064 162.5,351C 162.497,348.516 163.163,346.349 164.5,344.5 Z"/></g>
<g><path style="opacity:1" fill="#2a497b" d="M 289.5,364.5 C 291.771,367.046 292.937,370.046 293,373.5C 287.427,379.021 282.594,385.021 278.5,391.5C 280.092,387.071 281.925,382.738 284,378.5C 285.562,376.566 287.395,374.899 289.5,373.5C 290.321,370.554 290.321,367.554 289.5,364.5 Z"/></g>
<g><path style="opacity:1" fill="#254b81" d="M 452.5,358.5 C 452.586,360.677 453.253,362.677 454.5,364.5C 453.571,366.322 454.238,367.655 456.5,368.5C 457.778,366.339 459.111,364.173 460.5,362C 460.167,361.667 459.833,361.333 459.5,361C 460.793,360.51 462.127,360.343 463.5,360.5C 460.128,366.739 456.128,372.572 451.5,378C 453.041,379.371 454.375,380.871 455.5,382.5C 456.815,383.476 458.148,384.476 459.5,385.5C 460.852,384.476 462.185,383.476 463.5,382.5C 463.64,385.733 462.473,388.399 460,390.5C 459.505,392.473 459.338,394.473 459.5,396.5C 456.475,395.764 453.975,394.764 452,393.5C 449.398,398.103 446.065,402.103 442,405.5C 441.51,406.793 441.343,408.127 441.5,409.5C 445.5,410.167 445.5,410.833 441.5,411.5C 441.238,412.978 441.571,414.311 442.5,415.5C 445.86,417.36 448.36,420.027 450,423.5C 451.512,424.257 452.846,425.257 454,426.5C 454.414,426.043 454.914,425.709 455.5,425.5C 456.298,427.078 456.798,428.744 457,430.5C 458.011,431.337 459.178,431.67 460.5,431.5C 460.5,432.5 460.5,433.5 460.5,434.5C 461.5,434.5 462.5,434.5 463.5,434.5C 464.167,436.5 464.833,438.5 465.5,440.5C 455.005,430.839 445.005,420.672 435.5,410C 439.333,406.167 443.167,402.333 447,398.5C 446.358,394.649 444.191,391.649 440.5,389.5C 436.116,393.02 431.45,396.02 426.5,398.5C 426.421,397.07 426.754,395.736 427.5,394.5C 432.066,391.23 436.732,388.064 441.5,385C 437.591,382.256 438.091,380.09 443,378.5C 443.778,376.416 444.945,374.583 446.5,373C 448.582,373.932 450.915,374.432 453.5,374.5C 453.657,373.127 453.49,371.793 453,370.5C 450.721,368.711 448.721,366.711 447,364.5C 446.292,365.381 445.458,366.047 444.5,366.5C 445.126,363.685 446.46,361.185 448.5,359C 449.793,358.51 451.127,358.343 452.5,358.5 Z"/></g>
<g><path style="opacity:1" fill="#1a764f" d="M 332.5,356.5 C 330.612,359.899 328.112,362.899 325,365.5C 325.195,367.126 325.195,368.793 325,370.5C 324.667,369.833 324.333,369.167 324,368.5C 323.575,372.306 321.408,374.14 317.5,374C 310.146,381.665 303.646,389.832 298,398.5C 296.653,400.466 295.153,400.799 293.5,399.5C 293.5,399.167 293.5,398.833 293.5,398.5C 303.177,388.155 312.51,377.488 321.5,366.5C 325.167,363.167 328.833,359.833 332.5,356.5 Z"/></g>
<g><path style="opacity:1" fill="#d7f4eb" d="M 321.5,366.5 C 312.51,377.488 303.177,388.155 293.5,398.5C 293.794,395.246 295.127,392.579 297.5,390.5C 304.471,383.751 311.471,376.251 318.5,368C 318.167,367.667 317.833,367.333 317.5,367C 318.793,366.51 320.127,366.343 321.5,366.5 Z"/></g>
<g><path style="opacity:1" fill="#1d4a8f" d="M 455.5,382.5 C 455.784,384.877 455.784,387.044 455.5,389C 456.308,389.308 456.975,389.808 457.5,390.5C 456.135,391.456 454.635,392.122 453,392.5C 450.536,391.839 448.036,391.339 445.5,391C 444.167,389 444.167,387 445.5,385C 444.833,384.667 444.167,384.333 443.5,384C 445.303,382.738 446.636,381.071 447.5,379C 446.253,377.506 446.253,376.006 447.5,374.5C 450.029,376.063 451.029,378.396 450.5,381.5C 452.216,381.629 453.883,381.962 455.5,382.5 Z"/></g>
<g><path style="opacity:1" fill="#2e4c78" d="M 423.5,383.5 C 422.972,384.721 422.305,385.887 421.5,387C 419.189,387.236 417.189,388.069 415.5,389.5C 412.148,390.337 409.148,391.837 406.5,394C 393.606,396.2 380.606,397.034 367.5,396.5C 367.5,395.833 367.5,395.167 367.5,394.5C 387.468,397.172 406.135,393.505 423.5,383.5 Z"/></g>
<g><path style="opacity:1" fill="#1d4990" d="M 363.5,393.5 C 364.959,393.433 366.292,393.766 367.5,394.5C 367.5,395.167 367.5,395.833 367.5,396.5C 371.591,398.083 375.924,399.25 380.5,400C 374.326,400.496 368.326,401.496 362.5,403C 364.354,404.735 366.521,405.902 369,406.5C 377.131,405.711 385.298,405.211 393.5,405C 397.022,402.801 400.022,403.301 402.5,406.5C 388.302,409.885 373.969,409.719 359.5,406C 358.019,405.02 356.685,403.853 355.5,402.5C 356.955,400.78 357.788,398.78 358,396.5C 359.78,395.361 361.614,394.361 363.5,393.5 Z"/></g>
<g><path style="opacity:1" fill="#274a7e" d="M 511.5,414.5 C 510.527,415.791 509.527,415.791 508.5,414.5C 505.91,409.572 501.91,406.572 496.5,405.5C 495.833,405.833 495.167,406.167 494.5,406.5C 494.167,404.5 493.833,402.5 493.5,400.5C 490.791,401.67 488.125,402.837 485.5,404C 489.001,407.014 491.001,410.847 491.5,415.5C 484.494,409.161 477.827,402.494 471.5,395.5C 466.813,399.855 462.146,404.188 457.5,408.5C 458.449,404.499 460.782,401.499 464.5,399.5C 465.281,398.271 465.781,396.938 466,395.5C 468.423,394.288 470.756,392.954 473,391.5C 474.993,393.666 476.827,395.999 478.5,398.5C 478.109,397.109 478.942,396.109 481,395.5C 483.696,396.672 485.363,398.672 486,401.5C 487.491,399.996 489.324,399.163 491.5,399C 489.167,397.757 488.5,396.091 489.5,394C 485.306,389.306 480.639,385.139 475.5,381.5C 474.827,378.003 472.827,376.837 469.5,378C 468.211,379.802 466.544,380.969 464.5,381.5C 466.528,378.281 469.195,376.114 472.5,375C 485.702,388.035 498.702,401.202 511.5,414.5 Z"/></g>
<g><path style="opacity:1" fill="#1d4a87" d="M 415.5,389.5 C 415.081,392.325 416.081,394.491 418.5,396C 416.393,397.264 415.393,399.097 415.5,401.5C 418.766,401.371 421.766,400.371 424.5,398.5C 425.107,398.624 425.44,398.957 425.5,399.5C 421.957,401.438 418.29,403.105 414.5,404.5C 414.5,403.5 414.5,402.5 414.5,401.5C 410.459,401.498 409.792,400.165 412.5,397.5C 410.579,393.908 408.079,393.575 405,396.5C 404.439,395.978 403.772,395.645 403,395.5C 396.628,397.017 390.128,398.017 383.5,398.5C 382.975,399.192 382.308,399.692 381.5,400C 381.833,400.333 382.167,400.667 382.5,401C 387.087,401.799 391.587,401.632 396,400.5C 398.667,401.167 401.333,401.833 404,402.5C 404.333,401.833 404.667,401.167 405,400.5C 406.706,401.308 407.539,402.641 407.5,404.5C 405.989,405.502 404.322,406.169 402.5,406.5C 400.022,403.301 397.022,402.801 393.5,405C 385.298,405.211 377.131,405.711 369,406.5C 366.521,405.902 364.354,404.735 362.5,403C 368.326,401.496 374.326,400.496 380.5,400C 375.924,399.25 371.591,398.083 367.5,396.5C 380.606,397.034 393.606,396.2 406.5,394C 409.148,391.837 412.148,390.337 415.5,389.5 Z"/></g>
<g><path style="opacity:1" fill="#1d4990" d="M 414.5,404.5 C 414.167,404.5 413.833,404.5 413.5,404.5C 411.5,404.5 409.5,404.5 407.5,404.5C 407.539,402.641 406.706,401.308 405,400.5C 404.667,401.167 404.333,401.833 404,402.5C 401.333,401.833 398.667,401.167 396,400.5C 391.587,401.632 387.087,401.799 382.5,401C 382.167,400.667 381.833,400.333 381.5,400C 382.308,399.692 382.975,399.192 383.5,398.5C 390.128,398.017 396.628,397.017 403,395.5C 403.772,395.645 404.439,395.978 405,396.5C 408.079,393.575 410.579,393.908 412.5,397.5C 409.792,400.165 410.459,401.498 414.5,401.5C 414.5,402.5 414.5,403.5 414.5,404.5 Z"/></g>
<g><path style="opacity:1" fill="#f3f7f6" d="M 491.5,415.5 C 492.833,417.5 494.5,419.167 496.5,420.5C 505.5,430.167 514.833,439.5 524.5,448.5C 526.529,450.858 528.529,453.192 530.5,455.5C 533.833,459.5 537.5,463.167 541.5,466.5C 542.864,468.191 544.197,469.858 545.5,471.5C 544.767,483.696 538.767,487.529 527.5,483C 510.939,465.607 494.272,448.441 477.5,431.5C 471.167,424.5 464.5,417.833 457.5,411.5C 457.5,410.5 457.5,409.5 457.5,408.5C 462.146,404.188 466.813,399.855 471.5,395.5C 477.827,402.494 484.494,409.161 491.5,415.5 Z"/></g>
<g><path style="opacity:1" fill="#2c4878" d="M 363.5,393.5 C 361.614,394.361 359.78,395.361 358,396.5C 357.788,398.78 356.955,400.78 355.5,402.5C 356.685,403.853 358.019,405.02 359.5,406C 373.969,409.719 388.302,409.885 402.5,406.5C 404.322,406.169 405.989,405.502 407.5,404.5C 409.5,404.5 411.5,404.5 413.5,404.5C 407.505,407.086 401.172,408.92 394.5,410C 379.273,412.066 364.606,410.232 350.5,404.5C 353.043,400.579 355.71,396.746 358.5,393C 360.387,392.22 362.054,392.387 363.5,393.5 Z"/></g>
<g><path style="opacity:1" fill="#0f7d51" d="M 357.5,375.5 C 347.915,387.684 338.581,400.017 329.5,412.5C 321.45,421.59 314.116,431.256 307.5,441.5C 306.728,439.47 307.394,437.637 309.5,436C 308.833,435.667 308.167,435.333 307.5,435C 311.408,433.424 313.908,430.591 315,426.5C 319.069,423.958 321.069,420.291 321,415.5C 318.413,417.196 315.579,418.196 312.5,418.5C 312.222,416.654 312.889,415.32 314.5,414.5C 315.167,409.833 315.833,405.167 316.5,400.5C 317.086,400.291 317.586,399.957 318,399.5C 318.27,402.362 319.104,405.028 320.5,407.5C 321.386,406.675 321.719,405.675 321.5,404.5C 322.5,404.5 323.5,404.5 324.5,404.5C 324.5,405.5 324.5,406.5 324.5,407.5C 326.199,407.66 327.866,407.494 329.5,407C 330.212,404.119 331.878,401.952 334.5,400.5C 333.502,397.972 332.669,397.972 332,400.5C 331.502,397.518 331.335,394.518 331.5,391.5C 333.5,390.833 335.5,390.167 337.5,389.5C 339.056,397.471 340.889,397.471 343,389.5C 344.011,388.663 345.178,388.33 346.5,388.5C 346.599,385.37 347.766,382.704 350,380.5C 351.11,378.963 352.61,378.297 354.5,378.5C 354.5,377.5 354.5,376.5 354.5,375.5C 355.5,375.5 356.5,375.5 357.5,375.5 Z"/></g>
<g><path style="opacity:1" fill="#2c4b75" d="M 457.5,411.5 C 464.5,417.833 471.167,424.5 477.5,431.5C 476.542,431.953 475.708,432.619 475,433.5C 471.785,427.612 467.451,422.612 462,418.5C 460.25,416.266 458.75,413.932 457.5,411.5 Z"/></g>
<g><path style="opacity:1" fill="#1c4a8b" d="M 511.5,414.5 C 511.66,416.199 511.494,417.866 511,419.5C 509.245,420.67 508.245,422.337 508,424.5C 506.044,424.784 503.877,424.784 501.5,424.5C 501.68,420.448 500.013,419.115 496.5,420.5C 494.5,419.167 492.833,417.5 491.5,415.5C 491.001,410.847 489.001,407.014 485.5,404C 488.125,402.837 490.791,401.67 493.5,400.5C 493.833,402.5 494.167,404.5 494.5,406.5C 495.167,406.167 495.833,405.833 496.5,405.5C 501.91,406.572 505.91,409.572 508.5,414.5C 509.527,415.791 510.527,415.791 511.5,414.5 Z"/></g>
<g><path style="opacity:1" fill="#dff5ee" d="M 210.5,401.5 C 207.236,403.094 204.569,405.427 202.5,408.5C 196.833,413.167 191.167,417.833 185.5,422.5C 186.536,420.609 186.536,418.776 185.5,417C 187.055,415.354 188.721,415.021 190.5,416C 196.343,410.158 202.51,404.658 209,399.5C 209.717,400.044 210.217,400.711 210.5,401.5 Z"/></g>
<g><path style="opacity:1" fill="#244a7f" d="M 225.5,384.5 C 225.5,384.167 225.5,383.833 225.5,383.5C 226.833,383.5 228.167,383.5 229.5,383.5C 232.153,392.621 235.319,401.621 239,410.5C 240.42,407.353 240.587,404.187 239.5,401C 240.01,399.174 240.844,399.007 242,400.5C 242.1,403.437 242.933,406.104 244.5,408.5C 243.329,410.169 241.996,411.669 240.5,413C 241.982,415.648 243.982,417.815 246.5,419.5C 247.845,418.653 248.845,417.487 249.5,416C 252.667,415.167 253.833,416.333 253,419.5C 250.952,420.098 249.785,421.431 249.5,423.5C 249.98,426.492 251.647,427.659 254.5,427C 259.122,422.539 262.789,417.373 265.5,411.5C 266.85,410.05 268.516,409.383 270.5,409.5C 265.191,416.481 259.857,423.481 254.5,430.5C 253.998,431.521 253.332,431.688 252.5,431C 247.475,425.396 242.309,419.896 237,414.5C 235.159,407.471 233.159,400.471 231,393.5C 229.303,390.328 227.47,387.328 225.5,384.5 Z"/></g>
<g><path style="opacity:1" fill="#227753" d="M 291.5,401.5 C 292.497,401.47 293.164,401.97 293.5,403C 281.193,416.738 269.693,431.238 259,446.5C 258.31,447.738 257.81,447.738 257.5,446.5C 264.113,436.554 271.113,426.887 278.5,417.5C 282.803,412.191 287.137,406.858 291.5,401.5 Z"/></g>
<g><path style="opacity:1" fill="#264b7e" d="M 511.5,414.5 C 517.233,419.23 522.233,424.564 526.5,430.5C 524.951,430.736 523.451,430.736 522,430.5C 519.715,428.093 517.549,425.593 515.5,423C 516.524,421.633 516.024,420.8 514,420.5C 512.286,421.076 511.119,422.243 510.5,424C 510.833,424.333 511.167,424.667 511.5,425C 510.687,426.314 509.687,427.481 508.5,428.5C 512.457,434.476 517.291,439.476 523,443.5C 523.608,445.154 524.108,446.821 524.5,448.5C 514.833,439.5 505.5,430.167 496.5,420.5C 500.013,419.115 501.68,420.448 501.5,424.5C 503.877,424.784 506.044,424.784 508,424.5C 508.245,422.337 509.245,420.67 511,419.5C 511.494,417.866 511.66,416.199 511.5,414.5 Z"/></g>
<g><path style="opacity:1" fill="#e8f8f1" d="M 329.5,412.5 C 328.82,415.393 327.487,417.893 325.5,420C 326.833,421.84 326.666,422.34 325,421.5C 324.138,423.087 323.471,424.754 323,426.5C 318.855,430.315 315.022,434.481 311.5,439C 313.521,439.14 315.355,439.307 317,439.5C 318.238,442.926 317.071,444.592 313.5,444.5C 313.719,445.675 313.386,446.675 312.5,447.5C 311.108,446.395 309.941,445.061 309,443.5C 309,444.833 309,446.167 309,447.5C 307.927,446.72 306.76,446.887 305.5,448C 304.745,450.175 303.912,452.341 303,454.5C 302.586,454.043 302.086,453.709 301.5,453.5C 300,455.833 298.5,458.167 297,460.5C 295.871,462.141 294.371,463.141 292.5,463.5C 297.5,456.167 302.5,448.833 307.5,441.5C 314.116,431.256 321.45,421.59 329.5,412.5 Z"/></g>
<g><path style="opacity:1" fill="#dcf6ed" d="M 278.5,417.5 C 271.113,426.887 264.113,436.554 257.5,446.5C 257.167,446.5 256.833,446.5 256.5,446.5C 258.3,442.224 260.133,437.891 262,433.5C 262.333,433.833 262.667,434.167 263,434.5C 267.302,430.576 270.636,425.909 273,420.5C 273.333,420.833 273.667,421.167 274,421.5C 274.748,419.249 276.248,417.916 278.5,417.5 Z"/></g>
<g><path style="opacity:1" fill="#d7f4eb" d="M 224.5,417.5 C 225.959,417.433 227.292,417.766 228.5,418.5C 236.033,427.212 243.867,435.879 252,444.5C 252.483,445.448 252.649,446.448 252.5,447.5C 253.5,447.5 254.5,447.5 255.5,447.5C 255.5,448.167 255.5,448.833 255.5,449.5C 254.883,449.611 254.383,449.944 254,450.5C 244.33,439.331 234.496,428.331 224.5,417.5 Z"/></g>
<g><path style="opacity:1" fill="#1c4a8d" d="M 526.5,430.5 C 529.833,433.167 532.833,436.167 535.5,439.5C 536.423,442.34 538.09,444.674 540.5,446.5C 536.766,447.728 536.599,449.395 540,451.5C 540.667,453.833 540.667,456.167 540,458.5C 537.167,456.333 534.333,454.167 531.5,452C 530.167,451.333 530.167,450.667 531.5,450C 529.323,448.798 526.989,448.298 524.5,448.5C 524.108,446.821 523.608,445.154 523,443.5C 517.291,439.476 512.457,434.476 508.5,428.5C 509.687,427.481 510.687,426.314 511.5,425C 511.167,424.667 510.833,424.333 510.5,424C 511.119,422.243 512.286,421.076 514,420.5C 516.024,420.8 516.524,421.633 515.5,423C 517.549,425.593 519.715,428.093 522,430.5C 523.451,430.736 524.951,430.736 526.5,430.5 Z"/></g>
<g><path style="opacity:1" fill="#284a7d" d="M 477.5,431.5 C 494.272,448.441 510.939,465.607 527.5,483C 538.767,487.529 544.767,483.696 545.5,471.5C 546.156,472.622 546.489,473.955 546.5,475.5C 546.121,478.582 545.454,481.582 544.5,484.5C 537.507,487.395 530.674,487.061 524,483.5C 523.667,483.833 523.333,484.167 523,484.5C 520.879,478.544 517.379,473.544 512.5,469.5C 509.43,469.505 506.43,468.505 503.5,466.5C 501.978,464.844 502.311,463.677 504.5,463C 502.393,461.736 501.393,459.903 501.5,457.5C 500.5,457.5 499.5,457.5 498.5,457.5C 498.67,456.178 498.337,455.011 497.5,454C 495.899,453.727 494.399,453.227 493,452.5C 492,452.833 491,453.167 490,453.5C 489.383,452.551 489.549,451.718 490.5,451C 488.046,448.329 486.379,445.162 485.5,441.5C 481.677,439.019 479.01,435.685 477.5,431.5 Z"/></g>
<g><path style="opacity:1" fill="#1e7a54" d="M 210.5,401.5 C 214.794,407.129 219.461,412.463 224.5,417.5C 234.496,428.331 244.33,439.331 254,450.5C 254.383,449.944 254.883,449.611 255.5,449.5C 256.738,449.81 256.738,450.31 255.5,451C 254.056,451.781 252.723,451.614 251.5,450.5C 244.75,442.51 237.083,434.01 228.5,425C 226.062,423.126 223.562,422.293 221,422.5C 220.792,420.223 219.958,418.057 218.5,416C 219.451,415.282 219.617,414.449 219,413.5C 216.5,410.667 214,407.833 211.5,405C 208.482,405.844 205.482,407.011 202.5,408.5C 204.569,405.427 207.236,403.094 210.5,401.5 Z"/></g>
<g><path style="opacity:1" fill="#204a83" d="M 535.5,439.5 C 542.891,445.889 549.557,452.889 555.5,460.5C 553.203,458.706 551.037,456.706 549,454.5C 548,455.833 547,455.833 546,454.5C 545.506,456.134 545.34,457.801 545.5,459.5C 546.833,459.5 548.167,459.5 549.5,459.5C 549.5,460.833 549.5,462.167 549.5,463.5C 548.167,463.5 546.833,463.5 545.5,463.5C 545.5,466.167 545.5,468.833 545.5,471.5C 544.197,469.858 542.864,468.191 541.5,466.5C 541.611,465.883 541.944,465.383 542.5,465C 539.23,460.895 535.23,457.728 530.5,455.5C 528.529,453.192 526.529,450.858 524.5,448.5C 526.989,448.298 529.323,448.798 531.5,450C 530.167,450.667 530.167,451.333 531.5,452C 534.333,454.167 537.167,456.333 540,458.5C 540.667,456.167 540.667,453.833 540,451.5C 536.599,449.395 536.766,447.728 540.5,446.5C 538.09,444.674 536.423,442.34 535.5,439.5 Z"/></g>
<g><path style="opacity:1" fill="#33517c" d="M 480.5,455.5 C 485.189,456.136 487.856,458.47 488.5,462.5C 490.228,464.226 492.228,465.559 494.5,466.5C 495.754,470.089 498.088,472.756 501.5,474.5C 502.791,475.527 502.791,476.527 501.5,477.5C 493.798,470.799 486.798,463.466 480.5,455.5 Z"/></g>
<g><path style="opacity:1" fill="#1c4a8c" d="M 457.5,408.5 C 457.5,409.5 457.5,410.5 457.5,411.5C 458.75,413.932 460.25,416.266 462,418.5C 467.451,422.612 471.785,427.612 475,433.5C 475.708,432.619 476.542,431.953 477.5,431.5C 479.01,435.685 481.677,439.019 485.5,441.5C 486.379,445.162 488.046,448.329 490.5,451C 489.549,451.718 489.383,452.551 490,453.5C 491,453.167 492,452.833 493,452.5C 494.399,453.227 495.899,453.727 497.5,454C 498.337,455.011 498.67,456.178 498.5,457.5C 499.5,457.5 500.5,457.5 501.5,457.5C 501.393,459.903 502.393,461.736 504.5,463C 502.311,463.677 501.978,464.844 503.5,466.5C 506.43,468.505 509.43,469.505 512.5,469.5C 517.379,473.544 520.879,478.544 523,484.5C 523.333,484.167 523.667,483.833 524,483.5C 530.674,487.061 537.507,487.395 544.5,484.5C 545.454,481.582 546.121,478.582 546.5,475.5C 546.489,473.955 546.156,472.622 545.5,471.5C 545.5,468.833 545.5,466.167 545.5,463.5C 546.833,463.5 548.167,463.5 549.5,463.5C 549.5,462.167 549.5,460.833 549.5,459.5C 548.167,459.5 546.833,459.5 545.5,459.5C 545.34,457.801 545.506,456.134 546,454.5C 547,455.833 548,455.833 549,454.5C 551.037,456.706 553.203,458.706 555.5,460.5C 556.906,460.973 557.573,461.973 557.5,463.5C 558.306,469.528 558.306,475.528 557.5,481.5C 555.683,479.584 554.516,477.251 554,474.5C 553.501,470.848 553.335,467.182 553.5,463.5C 550.225,464.019 548.892,466.019 549.5,469.5C 549.404,471.926 550.07,474.093 551.5,476C 551.626,478.234 551.293,480.568 550.5,483C 553.723,483.938 555.056,486.105 554.5,489.5C 553.022,489.238 551.689,489.571 550.5,490.5C 550.709,491.086 551.043,491.586 551.5,492C 550.177,492.816 549.511,493.983 549.5,495.5C 549.027,496.906 548.027,497.573 546.5,497.5C 537.359,498.744 528.359,498.077 519.5,495.5C 518.62,493.611 518.62,491.611 519.5,489.5C 515.538,490.135 514.205,488.802 515.5,485.5C 515.471,483.971 514.804,482.804 513.5,482C 511.965,482.661 510.298,482.994 508.5,483C 506.559,480.546 504.225,478.713 501.5,477.5C 502.791,476.527 502.791,475.527 501.5,474.5C 498.088,472.756 495.754,470.089 494.5,466.5C 492.228,465.559 490.228,464.226 488.5,462.5C 487.856,458.47 485.189,456.136 480.5,455.5C 475.167,450.833 470.167,445.833 465.5,440.5C 464.833,438.5 464.167,436.5 463.5,434.5C 462.5,434.5 461.5,434.5 460.5,434.5C 460.5,433.5 460.5,432.5 460.5,431.5C 459.178,431.67 458.011,431.337 457,430.5C 456.798,428.744 456.298,427.078 455.5,425.5C 454.914,425.709 454.414,426.043 454,426.5C 452.846,425.257 451.512,424.257 450,423.5C 448.36,420.027 445.86,417.36 442.5,415.5C 441.571,414.311 441.238,412.978 441.5,411.5C 445.5,410.833 445.5,410.167 441.5,409.5C 441.343,408.127 441.51,406.793 442,405.5C 446.065,402.103 449.398,398.103 452,393.5C 453.975,394.764 456.475,395.764 459.5,396.5C 459.338,394.473 459.505,392.473 460,390.5C 462.473,388.399 463.64,385.733 463.5,382.5C 463.5,381.833 463.833,381.5 464.5,381.5C 466.544,380.969 468.211,379.802 469.5,378C 472.827,376.837 474.827,378.003 475.5,381.5C 480.639,385.139 485.306,389.306 489.5,394C 488.5,396.091 489.167,397.757 491.5,399C 489.324,399.163 487.491,399.996 486,401.5C 485.363,398.672 483.696,396.672 481,395.5C 478.942,396.109 478.109,397.109 478.5,398.5C 476.827,395.999 474.993,393.666 473,391.5C 470.756,392.954 468.423,394.288 466,395.5C 465.781,396.938 465.281,398.271 464.5,399.5C 460.782,401.499 458.449,404.499 457.5,408.5 Z"/></g>
<g><path style="opacity:1" fill="#3a5681" d="M 530.5,455.5 C 535.23,457.728 539.23,460.895 542.5,465C 541.944,465.383 541.611,465.883 541.5,466.5C 537.5,463.167 533.833,459.5 530.5,455.5 Z"/></g>
<g><path style="opacity:1" fill="#e7f6f1" d="M 200.5,457.5 C 206.167,463.5 211.833,469.5 217.5,475.5C 219.833,478.833 222.167,482.167 224.5,485.5C 222.595,485.928 220.762,485.262 219,483.5C 218.64,481.579 217.806,479.912 216.5,478.5C 211.492,477.575 208.658,474.575 208,469.5C 205.552,471.784 203.385,471.284 201.5,468C 202.516,467.481 203.182,466.647 203.5,465.5C 202.49,462.817 201.49,460.151 200.5,457.5 Z"/></g>
<g><path style="opacity:1" fill="#234b81" d="M 557.5,463.5 C 558.793,464.842 559.626,466.509 560,468.5C 561.093,475.485 560.093,482.151 557,488.5C 554.91,491.428 552.41,493.761 549.5,495.5C 549.511,493.983 550.177,492.816 551.5,492C 551.043,491.586 550.709,491.086 550.5,490.5C 551.689,489.571 553.022,489.238 554.5,489.5C 555.056,486.105 553.723,483.938 550.5,483C 551.293,480.568 551.626,478.234 551.5,476C 550.07,474.093 549.404,471.926 549.5,469.5C 548.892,466.019 550.225,464.019 553.5,463.5C 553.335,467.182 553.501,470.848 554,474.5C 554.516,477.251 555.683,479.584 557.5,481.5C 558.306,475.528 558.306,469.528 557.5,463.5 Z"/></g>
<g><path style="opacity:1" fill="#1e7752" d="M 288.5,468.5 C 287.139,470.85 285.806,473.184 284.5,475.5C 280.167,481.5 275.833,487.5 271.5,493.5C 274.798,487.33 277.965,480.996 281,474.5C 283.066,471.893 285.566,469.893 288.5,468.5 Z"/></g>
<g><path style="opacity:1" fill="#23487a" d="M 501.5,477.5 C 504.225,478.713 506.559,480.546 508.5,483C 510.298,482.994 511.965,482.661 513.5,482C 514.804,482.804 515.471,483.971 515.5,485.5C 514.205,488.802 515.538,490.135 519.5,489.5C 518.62,491.611 518.62,493.611 519.5,495.5C 513.167,489.833 507.167,483.833 501.5,477.5 Z"/></g>
<g><path style="opacity:1" fill="#dbf6ec" d="M 284.5,475.5 C 284.773,477.451 284.107,478.951 282.5,480C 284.79,480.79 285.123,482.124 283.5,484C 282.158,486.499 280.992,486.665 280,484.5C 278.667,487.167 277.333,489.833 276,492.5C 274.871,494.141 273.371,495.141 271.5,495.5C 271.5,494.833 271.5,494.167 271.5,493.5C 275.833,487.5 280.167,481.5 284.5,475.5 Z"/></g>
<g><path style="opacity:1" fill="#2c4b76" d="M 519.5,495.5 C 528.359,498.077 537.359,498.744 546.5,497.5C 539.485,500.821 532.151,501.321 524.5,499C 522.654,497.97 520.987,496.804 519.5,495.5 Z"/></g>
<g><path style="opacity:1" fill="#127b4f" d="M 269.5,496.5 C 264.917,504.265 260.084,511.932 255,519.5C 244.968,507.972 234.801,496.639 224.5,485.5C 222.167,482.167 219.833,478.833 217.5,475.5C 219.722,475.822 221.556,475.155 223,473.5C 223.333,475.047 222.833,476.38 221.5,477.5C 222.083,479.002 222.916,480.335 224,481.5C 226.056,479.681 228.223,479.015 230.5,479.5C 231.9,481.782 231.234,483.282 228.5,484C 229.833,485 229.833,486 228.5,487C 233.424,487.431 235.591,489.931 235,494.5C 237.868,495.361 240.202,497.028 242,499.5C 242.309,498.234 242.809,497.067 243.5,496C 243.167,495.667 242.833,495.333 242.5,495C 244.403,494.226 246.07,494.56 247.5,496C 247.043,496.414 246.709,496.914 246.5,497.5C 248.435,498.068 249.768,499.235 250.5,501C 250.167,501.5 249.833,502 249.5,502.5C 247.902,501.515 246.235,501.349 244.5,502C 246,504.167 247.5,506.333 249,508.5C 256.701,515.617 257.868,514.95 252.5,506.5C 252.833,505.833 253.167,505.167 253.5,504.5C 254.687,507.324 256.187,509.324 258,510.5C 259.115,509 259.948,507.333 260.5,505.5C 258.876,504.131 258.376,502.464 259,500.5C 260.716,499.448 261.716,500.114 262,502.5C 263.447,499.223 265.947,497.223 269.5,496.5 Z"/></g>
</svg>
